<mxfile host="Electron" modified="2025-03-22T21:30:47.565Z" agent="Mozilla/5.0 (Windows NT 10.0; Win64; x64) AppleWebKit/537.36 (KHTML, like Gecko) draw.io/24.1.0 Chrome/120.0.6099.109 Electron/28.1.0 Safari/537.36" etag="-lUsvtz6PSH7C5TgyhBj" version="24.1.0" type="device">
  <diagram name="Страница — 1" id="MvLf2T4EsreyR6XKmQS5">
    <mxGraphModel dx="2625" dy="3891" grid="0" gridSize="10" guides="1" tooltips="1" connect="1" arrows="1" fold="1" page="1" pageScale="1" pageWidth="1654" pageHeight="1169" math="0" shadow="0">
      <root>
        <mxCell id="0" />
        <mxCell id="1" parent="0" />
        <mxCell id="eMh7EWcEHwNUU9N83CI7-51" value="&lt;font style=&quot;font-size: 16px;&quot;&gt;Администратор&lt;/font&gt;" style="rounded=0;whiteSpace=wrap;html=1;" vertex="1" parent="1">
          <mxGeometry x="580" y="490" width="160" height="80" as="geometry" />
        </mxCell>
        <mxCell id="eMh7EWcEHwNUU9N83CI7-52" value="&lt;span style=&quot;font-size: 16px;&quot;&gt;Преподаватель&lt;/span&gt;" style="rounded=0;whiteSpace=wrap;html=1;" vertex="1" parent="1">
          <mxGeometry x="941" y="260" width="160" height="80" as="geometry" />
        </mxCell>
        <mxCell id="eMh7EWcEHwNUU9N83CI7-53" value="&lt;font style=&quot;font-size: 16px;&quot;&gt;Курс&lt;/font&gt;" style="rounded=0;whiteSpace=wrap;html=1;" vertex="1" parent="1">
          <mxGeometry x="220" y="260" width="160" height="80" as="geometry" />
        </mxCell>
        <mxCell id="eMh7EWcEHwNUU9N83CI7-54" value="&lt;font style=&quot;font-size: 16px;&quot;&gt;Пользователь&lt;/font&gt;" style="rounded=0;whiteSpace=wrap;html=1;" vertex="1" parent="1">
          <mxGeometry x="220" y="740" width="160" height="80" as="geometry" />
        </mxCell>
        <mxCell id="eMh7EWcEHwNUU9N83CI7-55" value="&lt;font style=&quot;font-size: 16px;&quot;&gt;Блог&lt;/font&gt;" style="rounded=0;whiteSpace=wrap;html=1;" vertex="1" parent="1">
          <mxGeometry x="941" y="740" width="160" height="80" as="geometry" />
        </mxCell>
        <mxCell id="eMh7EWcEHwNUU9N83CI7-56" value="&lt;font style=&quot;font-size: 16px;&quot;&gt;Управляет&lt;/font&gt;" style="rhombus;whiteSpace=wrap;html=1;" vertex="1" parent="1">
          <mxGeometry x="400" y="380" width="160" height="80" as="geometry" />
        </mxCell>
        <mxCell id="eMh7EWcEHwNUU9N83CI7-57" value="&lt;font style=&quot;font-size: 16px;&quot;&gt;Управляет&lt;/font&gt;" style="rhombus;whiteSpace=wrap;html=1;" vertex="1" parent="1">
          <mxGeometry x="420" y="610" width="160" height="80" as="geometry" />
        </mxCell>
        <mxCell id="eMh7EWcEHwNUU9N83CI7-59" value="&lt;font style=&quot;font-size: 16px;&quot;&gt;Управляет&lt;/font&gt;" style="rhombus;whiteSpace=wrap;html=1;" vertex="1" parent="1">
          <mxGeometry x="760" y="380" width="160" height="80" as="geometry" />
        </mxCell>
        <mxCell id="eMh7EWcEHwNUU9N83CI7-60" value="&lt;font style=&quot;font-size: 16px;&quot;&gt;Управляет&lt;/font&gt;" style="rhombus;whiteSpace=wrap;html=1;" vertex="1" parent="1">
          <mxGeometry x="760" y="610" width="160" height="80" as="geometry" />
        </mxCell>
        <mxCell id="eMh7EWcEHwNUU9N83CI7-61" value="&lt;font style=&quot;font-size: 16px;&quot;&gt;Взаимодействует&lt;/font&gt;" style="rhombus;whiteSpace=wrap;html=1;" vertex="1" parent="1">
          <mxGeometry x="220" y="500" width="160" height="80" as="geometry" />
        </mxCell>
        <mxCell id="eMh7EWcEHwNUU9N83CI7-62" value="&lt;font style=&quot;font-size: 16px;&quot;&gt;Взаимодействует&lt;/font&gt;" style="rhombus;whiteSpace=wrap;html=1;" vertex="1" parent="1">
          <mxGeometry x="580" y="740" width="160" height="80" as="geometry" />
        </mxCell>
        <mxCell id="eMh7EWcEHwNUU9N83CI7-63" value="&lt;font style=&quot;font-size: 16px;&quot;&gt;Редактирует&lt;/font&gt;" style="rhombus;whiteSpace=wrap;html=1;" vertex="1" parent="1">
          <mxGeometry x="570" y="260" width="160" height="80" as="geometry" />
        </mxCell>
        <mxCell id="eMh7EWcEHwNUU9N83CI7-64" value="&lt;font style=&quot;font-size: 16px;&quot;&gt;Редактирует&lt;/font&gt;" style="rhombus;whiteSpace=wrap;html=1;" vertex="1" parent="1">
          <mxGeometry x="941" y="500" width="160" height="80" as="geometry" />
        </mxCell>
        <mxCell id="eMh7EWcEHwNUU9N83CI7-65" value="" style="endArrow=none;html=1;rounded=0;exitX=0.5;exitY=1;exitDx=0;exitDy=0;entryX=0.5;entryY=0;entryDx=0;entryDy=0;" edge="1" parent="1" source="eMh7EWcEHwNUU9N83CI7-51" target="eMh7EWcEHwNUU9N83CI7-57">
          <mxGeometry width="50" height="50" relative="1" as="geometry">
            <mxPoint x="640" y="580" as="sourcePoint" />
            <mxPoint x="690" y="530" as="targetPoint" />
          </mxGeometry>
        </mxCell>
        <mxCell id="eMh7EWcEHwNUU9N83CI7-66" value="" style="endArrow=none;html=1;rounded=0;exitX=0.5;exitY=1;exitDx=0;exitDy=0;entryX=0.5;entryY=0;entryDx=0;entryDy=0;" edge="1" parent="1" source="eMh7EWcEHwNUU9N83CI7-57" target="eMh7EWcEHwNUU9N83CI7-54">
          <mxGeometry width="50" height="50" relative="1" as="geometry">
            <mxPoint x="670" y="580" as="sourcePoint" />
            <mxPoint x="510" y="620" as="targetPoint" />
          </mxGeometry>
        </mxCell>
        <mxCell id="eMh7EWcEHwNUU9N83CI7-67" value="" style="endArrow=none;html=1;rounded=0;exitX=0.5;exitY=0;exitDx=0;exitDy=0;entryX=0;entryY=0.5;entryDx=0;entryDy=0;" edge="1" parent="1" source="eMh7EWcEHwNUU9N83CI7-51" target="eMh7EWcEHwNUU9N83CI7-59">
          <mxGeometry width="50" height="50" relative="1" as="geometry">
            <mxPoint x="680" y="590" as="sourcePoint" />
            <mxPoint x="520" y="630" as="targetPoint" />
          </mxGeometry>
        </mxCell>
        <mxCell id="eMh7EWcEHwNUU9N83CI7-68" value="" style="endArrow=none;html=1;rounded=0;exitX=0.5;exitY=1;exitDx=0;exitDy=0;entryX=1;entryY=0.5;entryDx=0;entryDy=0;" edge="1" parent="1" source="eMh7EWcEHwNUU9N83CI7-52" target="eMh7EWcEHwNUU9N83CI7-59">
          <mxGeometry width="50" height="50" relative="1" as="geometry">
            <mxPoint x="690" y="600" as="sourcePoint" />
            <mxPoint x="530" y="640" as="targetPoint" />
          </mxGeometry>
        </mxCell>
        <mxCell id="eMh7EWcEHwNUU9N83CI7-69" value="" style="endArrow=none;html=1;rounded=0;exitX=0.5;exitY=0;exitDx=0;exitDy=0;entryX=1;entryY=0.5;entryDx=0;entryDy=0;" edge="1" parent="1" source="eMh7EWcEHwNUU9N83CI7-51" target="eMh7EWcEHwNUU9N83CI7-56">
          <mxGeometry width="50" height="50" relative="1" as="geometry">
            <mxPoint x="700" y="610" as="sourcePoint" />
            <mxPoint x="540" y="650" as="targetPoint" />
          </mxGeometry>
        </mxCell>
        <mxCell id="eMh7EWcEHwNUU9N83CI7-70" value="" style="endArrow=none;html=1;rounded=0;exitX=0;exitY=0.5;exitDx=0;exitDy=0;entryX=0.5;entryY=1;entryDx=0;entryDy=0;" edge="1" parent="1" source="eMh7EWcEHwNUU9N83CI7-56" target="eMh7EWcEHwNUU9N83CI7-53">
          <mxGeometry width="50" height="50" relative="1" as="geometry">
            <mxPoint x="710" y="620" as="sourcePoint" />
            <mxPoint x="550" y="660" as="targetPoint" />
          </mxGeometry>
        </mxCell>
        <mxCell id="eMh7EWcEHwNUU9N83CI7-71" value="" style="endArrow=none;html=1;rounded=0;exitX=0.5;exitY=0;exitDx=0;exitDy=0;entryX=0.5;entryY=1;entryDx=0;entryDy=0;" edge="1" parent="1" source="eMh7EWcEHwNUU9N83CI7-60" target="eMh7EWcEHwNUU9N83CI7-51">
          <mxGeometry width="50" height="50" relative="1" as="geometry">
            <mxPoint x="720" y="630" as="sourcePoint" />
            <mxPoint x="560" y="670" as="targetPoint" />
          </mxGeometry>
        </mxCell>
        <mxCell id="eMh7EWcEHwNUU9N83CI7-72" value="" style="endArrow=none;html=1;rounded=0;exitX=0.5;exitY=0;exitDx=0;exitDy=0;entryX=0.5;entryY=1;entryDx=0;entryDy=0;" edge="1" parent="1" source="eMh7EWcEHwNUU9N83CI7-55" target="eMh7EWcEHwNUU9N83CI7-60">
          <mxGeometry width="50" height="50" relative="1" as="geometry">
            <mxPoint x="730" y="640" as="sourcePoint" />
            <mxPoint x="570" y="680" as="targetPoint" />
          </mxGeometry>
        </mxCell>
        <mxCell id="eMh7EWcEHwNUU9N83CI7-73" value="" style="endArrow=none;html=1;rounded=0;exitX=0;exitY=0.5;exitDx=0;exitDy=0;entryX=1;entryY=0.5;entryDx=0;entryDy=0;" edge="1" parent="1" source="eMh7EWcEHwNUU9N83CI7-62" target="eMh7EWcEHwNUU9N83CI7-54">
          <mxGeometry width="50" height="50" relative="1" as="geometry">
            <mxPoint x="740" y="650" as="sourcePoint" />
            <mxPoint x="580" y="690" as="targetPoint" />
          </mxGeometry>
        </mxCell>
        <mxCell id="eMh7EWcEHwNUU9N83CI7-74" value="" style="endArrow=none;html=1;rounded=0;exitX=0;exitY=0.5;exitDx=0;exitDy=0;entryX=1;entryY=0.5;entryDx=0;entryDy=0;" edge="1" parent="1" source="eMh7EWcEHwNUU9N83CI7-55" target="eMh7EWcEHwNUU9N83CI7-62">
          <mxGeometry width="50" height="50" relative="1" as="geometry">
            <mxPoint x="750" y="660" as="sourcePoint" />
            <mxPoint x="590" y="700" as="targetPoint" />
          </mxGeometry>
        </mxCell>
        <mxCell id="eMh7EWcEHwNUU9N83CI7-75" value="" style="endArrow=none;html=1;rounded=0;exitX=0.5;exitY=1;exitDx=0;exitDy=0;entryX=0.5;entryY=0;entryDx=0;entryDy=0;" edge="1" parent="1" source="eMh7EWcEHwNUU9N83CI7-61" target="eMh7EWcEHwNUU9N83CI7-54">
          <mxGeometry width="50" height="50" relative="1" as="geometry">
            <mxPoint x="760" y="670" as="sourcePoint" />
            <mxPoint x="600" y="710" as="targetPoint" />
          </mxGeometry>
        </mxCell>
        <mxCell id="eMh7EWcEHwNUU9N83CI7-76" value="" style="endArrow=none;html=1;rounded=0;exitX=0.5;exitY=0;exitDx=0;exitDy=0;entryX=0.5;entryY=1;entryDx=0;entryDy=0;" edge="1" parent="1" source="eMh7EWcEHwNUU9N83CI7-61" target="eMh7EWcEHwNUU9N83CI7-53">
          <mxGeometry width="50" height="50" relative="1" as="geometry">
            <mxPoint x="770" y="680" as="sourcePoint" />
            <mxPoint x="610" y="720" as="targetPoint" />
          </mxGeometry>
        </mxCell>
        <mxCell id="eMh7EWcEHwNUU9N83CI7-77" value="" style="endArrow=none;html=1;rounded=0;exitX=0;exitY=0.5;exitDx=0;exitDy=0;entryX=1;entryY=0.5;entryDx=0;entryDy=0;" edge="1" parent="1" source="eMh7EWcEHwNUU9N83CI7-63" target="eMh7EWcEHwNUU9N83CI7-53">
          <mxGeometry width="50" height="50" relative="1" as="geometry">
            <mxPoint x="780" y="690" as="sourcePoint" />
            <mxPoint x="620" y="730" as="targetPoint" />
          </mxGeometry>
        </mxCell>
        <mxCell id="eMh7EWcEHwNUU9N83CI7-78" value="" style="endArrow=none;html=1;rounded=0;exitX=0;exitY=0.5;exitDx=0;exitDy=0;entryX=1;entryY=0.5;entryDx=0;entryDy=0;" edge="1" parent="1" source="eMh7EWcEHwNUU9N83CI7-52" target="eMh7EWcEHwNUU9N83CI7-63">
          <mxGeometry width="50" height="50" relative="1" as="geometry">
            <mxPoint x="790" y="700" as="sourcePoint" />
            <mxPoint x="630" y="740" as="targetPoint" />
          </mxGeometry>
        </mxCell>
        <mxCell id="eMh7EWcEHwNUU9N83CI7-79" value="" style="endArrow=none;html=1;rounded=0;exitX=0.5;exitY=0;exitDx=0;exitDy=0;entryX=0.5;entryY=1;entryDx=0;entryDy=0;" edge="1" parent="1" source="eMh7EWcEHwNUU9N83CI7-64" target="eMh7EWcEHwNUU9N83CI7-52">
          <mxGeometry width="50" height="50" relative="1" as="geometry">
            <mxPoint x="800" y="710" as="sourcePoint" />
            <mxPoint x="640" y="750" as="targetPoint" />
          </mxGeometry>
        </mxCell>
        <mxCell id="eMh7EWcEHwNUU9N83CI7-80" value="" style="endArrow=none;html=1;rounded=0;exitX=0.5;exitY=0;exitDx=0;exitDy=0;entryX=0.5;entryY=1;entryDx=0;entryDy=0;" edge="1" parent="1" source="eMh7EWcEHwNUU9N83CI7-55" target="eMh7EWcEHwNUU9N83CI7-64">
          <mxGeometry width="50" height="50" relative="1" as="geometry">
            <mxPoint x="810" y="720" as="sourcePoint" />
            <mxPoint x="650" y="760" as="targetPoint" />
          </mxGeometry>
        </mxCell>
        <mxCell id="eMh7EWcEHwNUU9N83CI7-81" value="&lt;font style=&quot;font-size: 17px;&quot;&gt;N&lt;/font&gt;" style="text;html=1;align=center;verticalAlign=middle;whiteSpace=wrap;rounded=0;" vertex="1" parent="1">
          <mxGeometry x="610" y="580" width="60" height="30" as="geometry" />
        </mxCell>
        <mxCell id="eMh7EWcEHwNUU9N83CI7-82" value="&lt;font style=&quot;font-size: 17px;&quot;&gt;N&lt;/font&gt;" style="text;html=1;align=center;verticalAlign=middle;whiteSpace=wrap;rounded=0;" vertex="1" parent="1">
          <mxGeometry x="650" y="580" width="60" height="30" as="geometry" />
        </mxCell>
        <mxCell id="eMh7EWcEHwNUU9N83CI7-83" value="&lt;font style=&quot;font-size: 17px;&quot;&gt;N&lt;/font&gt;" style="text;html=1;align=center;verticalAlign=middle;whiteSpace=wrap;rounded=0;" vertex="1" parent="1">
          <mxGeometry x="930" y="700" width="60" height="30" as="geometry" />
        </mxCell>
        <mxCell id="eMh7EWcEHwNUU9N83CI7-84" value="&lt;font style=&quot;font-size: 17px;&quot;&gt;N&lt;/font&gt;" style="text;html=1;align=center;verticalAlign=middle;whiteSpace=wrap;rounded=0;" vertex="1" parent="1">
          <mxGeometry x="310" y="700" width="60" height="30" as="geometry" />
        </mxCell>
        <mxCell id="eMh7EWcEHwNUU9N83CI7-85" value="&lt;font style=&quot;font-size: 17px;&quot;&gt;N&lt;/font&gt;" style="text;html=1;align=center;verticalAlign=middle;whiteSpace=wrap;rounded=0;" vertex="1" parent="1">
          <mxGeometry x="310" y="340" width="60" height="30" as="geometry" />
        </mxCell>
        <mxCell id="eMh7EWcEHwNUU9N83CI7-86" value="&lt;font style=&quot;font-size: 17px;&quot;&gt;N&lt;/font&gt;" style="text;html=1;align=center;verticalAlign=middle;whiteSpace=wrap;rounded=0;" vertex="1" parent="1">
          <mxGeometry x="361" y="270" width="60" height="30" as="geometry" />
        </mxCell>
        <mxCell id="eMh7EWcEHwNUU9N83CI7-87" value="&lt;font style=&quot;font-size: 17px;&quot;&gt;N&lt;/font&gt;" style="text;html=1;align=center;verticalAlign=middle;whiteSpace=wrap;rounded=0;" vertex="1" parent="1">
          <mxGeometry x="892" y="275" width="60" height="30" as="geometry" />
        </mxCell>
        <mxCell id="eMh7EWcEHwNUU9N83CI7-88" value="&lt;font style=&quot;font-size: 17px;&quot;&gt;N&lt;/font&gt;" style="text;html=1;align=center;verticalAlign=middle;whiteSpace=wrap;rounded=0;" vertex="1" parent="1">
          <mxGeometry x="1000" y="340" width="60" height="30" as="geometry" />
        </mxCell>
        <mxCell id="eMh7EWcEHwNUU9N83CI7-89" value="&lt;font style=&quot;font-size: 17px;&quot;&gt;N&lt;/font&gt;" style="text;html=1;align=center;verticalAlign=middle;whiteSpace=wrap;rounded=0;" vertex="1" parent="1">
          <mxGeometry x="1000" y="710" width="60" height="30" as="geometry" />
        </mxCell>
        <mxCell id="eMh7EWcEHwNUU9N83CI7-90" value="&lt;font style=&quot;font-size: 17px;&quot;&gt;N&lt;/font&gt;" style="text;html=1;align=center;verticalAlign=middle;whiteSpace=wrap;rounded=0;" vertex="1" parent="1">
          <mxGeometry x="361" y="750" width="60" height="30" as="geometry" />
        </mxCell>
        <mxCell id="eMh7EWcEHwNUU9N83CI7-91" value="&lt;font style=&quot;font-size: 17px;&quot;&gt;N&lt;/font&gt;" style="text;html=1;align=center;verticalAlign=middle;whiteSpace=wrap;rounded=0;" vertex="1" parent="1">
          <mxGeometry x="892" y="750" width="60" height="30" as="geometry" />
        </mxCell>
        <mxCell id="eMh7EWcEHwNUU9N83CI7-92" value="&lt;font style=&quot;font-size: 17px;&quot;&gt;N&lt;/font&gt;" style="text;html=1;align=center;verticalAlign=middle;whiteSpace=wrap;rounded=0;" vertex="1" parent="1">
          <mxGeometry x="250" y="710" width="60" height="30" as="geometry" />
        </mxCell>
        <mxCell id="eMh7EWcEHwNUU9N83CI7-93" value="&lt;font style=&quot;font-size: 17px;&quot;&gt;N&lt;/font&gt;" style="text;html=1;align=center;verticalAlign=middle;whiteSpace=wrap;rounded=0;" vertex="1" parent="1">
          <mxGeometry x="250" y="340" width="60" height="30" as="geometry" />
        </mxCell>
        <mxCell id="eMh7EWcEHwNUU9N83CI7-94" value="&lt;font style=&quot;font-size: 17px;&quot;&gt;N&lt;/font&gt;" style="text;html=1;align=center;verticalAlign=middle;whiteSpace=wrap;rounded=0;" vertex="1" parent="1">
          <mxGeometry x="952" y="340" width="60" height="30" as="geometry" />
        </mxCell>
        <mxCell id="eMh7EWcEHwNUU9N83CI7-95" value="&lt;font style=&quot;font-size: 17px;&quot;&gt;N&lt;/font&gt;" style="text;html=1;align=center;verticalAlign=middle;whiteSpace=wrap;rounded=0;" vertex="1" parent="1">
          <mxGeometry x="610" y="450" width="60" height="30" as="geometry" />
        </mxCell>
        <mxCell id="eMh7EWcEHwNUU9N83CI7-96" value="&lt;font style=&quot;font-size: 17px;&quot;&gt;N&lt;/font&gt;" style="text;html=1;align=center;verticalAlign=middle;whiteSpace=wrap;rounded=0;" vertex="1" parent="1">
          <mxGeometry x="650" y="450" width="60" height="30" as="geometry" />
        </mxCell>
        <mxCell id="eMh7EWcEHwNUU9N83CI7-162" value="&lt;font style=&quot;font-size: 16px;&quot;&gt;Пользователь&lt;/font&gt;" style="rounded=0;whiteSpace=wrap;html=1;" vertex="1" parent="1">
          <mxGeometry x="721" y="-520" width="160" height="80" as="geometry" />
        </mxCell>
        <mxCell id="eMh7EWcEHwNUU9N83CI7-163" value="&lt;font style=&quot;font-size: 16px;&quot;&gt;Курс&lt;/font&gt;" style="rounded=0;whiteSpace=wrap;html=1;" vertex="1" parent="1">
          <mxGeometry x="720" y="-840" width="160" height="80" as="geometry" />
        </mxCell>
        <mxCell id="eMh7EWcEHwNUU9N83CI7-164" value="&lt;span style=&quot;font-size: 16px;&quot;&gt;Роль&lt;/span&gt;" style="rounded=0;whiteSpace=wrap;html=1;" vertex="1" parent="1">
          <mxGeometry x="721" y="-259" width="160" height="80" as="geometry" />
        </mxCell>
        <mxCell id="eMh7EWcEHwNUU9N83CI7-165" value="&lt;font style=&quot;font-size: 16px;&quot;&gt;Блог&lt;/font&gt;" style="rounded=0;whiteSpace=wrap;html=1;" vertex="1" parent="1">
          <mxGeometry x="280" y="-520" width="160" height="80" as="geometry" />
        </mxCell>
        <mxCell id="eMh7EWcEHwNUU9N83CI7-166" value="&lt;font style=&quot;font-size: 16px;&quot;&gt;Категория&lt;/font&gt;" style="rounded=0;whiteSpace=wrap;html=1;" vertex="1" parent="1">
          <mxGeometry x="1150" y="-840" width="160" height="80" as="geometry" />
        </mxCell>
        <mxCell id="eMh7EWcEHwNUU9N83CI7-167" value="&lt;span style=&quot;font-size: 16px;&quot;&gt;Комментарий&lt;/span&gt;" style="rounded=0;whiteSpace=wrap;html=1;" vertex="1" parent="1">
          <mxGeometry x="280" y="-840" width="160" height="80" as="geometry" />
        </mxCell>
        <mxCell id="eMh7EWcEHwNUU9N83CI7-168" value="&lt;span style=&quot;font-size: 16px;&quot;&gt;Ресурс&lt;/span&gt;" style="rounded=0;whiteSpace=wrap;html=1;" vertex="1" parent="1">
          <mxGeometry x="480" y="-1090" width="160" height="80" as="geometry" />
        </mxCell>
        <mxCell id="eMh7EWcEHwNUU9N83CI7-169" value="&lt;span style=&quot;font-size: 16px;&quot;&gt;Тест&lt;/span&gt;" style="rounded=0;whiteSpace=wrap;html=1;" vertex="1" parent="1">
          <mxGeometry x="1000" y="-1090" width="160" height="80" as="geometry" />
        </mxCell>
        <mxCell id="eMh7EWcEHwNUU9N83CI7-170" value="&lt;font style=&quot;font-size: 16px;&quot;&gt;Имеет&lt;/font&gt;" style="rhombus;whiteSpace=wrap;html=1;" vertex="1" parent="1">
          <mxGeometry x="720" y="-390" width="160" height="80" as="geometry" />
        </mxCell>
        <mxCell id="eMh7EWcEHwNUU9N83CI7-171" value="&lt;font style=&quot;font-size: 16px;&quot;&gt;Управляет&lt;/font&gt;" style="rhombus;whiteSpace=wrap;html=1;" vertex="1" parent="1">
          <mxGeometry x="720" y="-684" width="160" height="80" as="geometry" />
        </mxCell>
        <mxCell id="eMh7EWcEHwNUU9N83CI7-172" value="&lt;font style=&quot;font-size: 16px;&quot;&gt;Управляет&lt;/font&gt;" style="rhombus;whiteSpace=wrap;html=1;" vertex="1" parent="1">
          <mxGeometry x="500" y="-520" width="160" height="80" as="geometry" />
        </mxCell>
        <mxCell id="eMh7EWcEHwNUU9N83CI7-173" value="&lt;font style=&quot;font-size: 16px;&quot;&gt;Относится к&lt;/font&gt;" style="rhombus;whiteSpace=wrap;html=1;" vertex="1" parent="1">
          <mxGeometry x="280" y="-684" width="160" height="80" as="geometry" />
        </mxCell>
        <mxCell id="eMh7EWcEHwNUU9N83CI7-174" value="&lt;font style=&quot;font-size: 16px;&quot;&gt;Относится к&lt;/font&gt;" style="rhombus;whiteSpace=wrap;html=1;" vertex="1" parent="1">
          <mxGeometry x="500" y="-840" width="160" height="80" as="geometry" />
        </mxCell>
        <mxCell id="eMh7EWcEHwNUU9N83CI7-175" value="&lt;font style=&quot;font-size: 16px;&quot;&gt;Управляет&lt;/font&gt;" style="rhombus;whiteSpace=wrap;html=1;" vertex="1" parent="1">
          <mxGeometry x="500" y="-684" width="160" height="80" as="geometry" />
        </mxCell>
        <mxCell id="eMh7EWcEHwNUU9N83CI7-176" value="&lt;font style=&quot;font-size: 16px;&quot;&gt;Относится к&lt;/font&gt;" style="rhombus;whiteSpace=wrap;html=1;" vertex="1" parent="1">
          <mxGeometry x="940" y="-840" width="160" height="80" as="geometry" />
        </mxCell>
        <mxCell id="eMh7EWcEHwNUU9N83CI7-177" value="&lt;font style=&quot;font-size: 16px;&quot;&gt;Имеет&lt;/font&gt;" style="rhombus;whiteSpace=wrap;html=1;" vertex="1" parent="1">
          <mxGeometry x="600" y="-970" width="160" height="80" as="geometry" />
        </mxCell>
        <mxCell id="eMh7EWcEHwNUU9N83CI7-178" value="&lt;font style=&quot;font-size: 16px;&quot;&gt;Имеет&lt;/font&gt;" style="rhombus;whiteSpace=wrap;html=1;" vertex="1" parent="1">
          <mxGeometry x="830" y="-970" width="160" height="80" as="geometry" />
        </mxCell>
        <mxCell id="eMh7EWcEHwNUU9N83CI7-179" value="" style="endArrow=none;html=1;rounded=0;exitX=0.5;exitY=0;exitDx=0;exitDy=0;entryX=0.5;entryY=1;entryDx=0;entryDy=0;" edge="1" parent="1" source="eMh7EWcEHwNUU9N83CI7-162" target="eMh7EWcEHwNUU9N83CI7-171">
          <mxGeometry width="50" height="50" relative="1" as="geometry">
            <mxPoint x="800" y="-600" as="sourcePoint" />
            <mxPoint x="850" y="-650" as="targetPoint" />
          </mxGeometry>
        </mxCell>
        <mxCell id="eMh7EWcEHwNUU9N83CI7-180" value="" style="endArrow=none;html=1;rounded=0;exitX=0.5;exitY=0;exitDx=0;exitDy=0;entryX=0.5;entryY=1;entryDx=0;entryDy=0;" edge="1" parent="1" source="eMh7EWcEHwNUU9N83CI7-171" target="eMh7EWcEHwNUU9N83CI7-163">
          <mxGeometry width="50" height="50" relative="1" as="geometry">
            <mxPoint x="811" y="-510" as="sourcePoint" />
            <mxPoint x="810" y="-594" as="targetPoint" />
          </mxGeometry>
        </mxCell>
        <mxCell id="eMh7EWcEHwNUU9N83CI7-181" value="" style="endArrow=none;html=1;rounded=0;exitX=0.5;exitY=1;exitDx=0;exitDy=0;entryX=0.5;entryY=0;entryDx=0;entryDy=0;" edge="1" parent="1" source="eMh7EWcEHwNUU9N83CI7-162" target="eMh7EWcEHwNUU9N83CI7-170">
          <mxGeometry width="50" height="50" relative="1" as="geometry">
            <mxPoint x="821" y="-500" as="sourcePoint" />
            <mxPoint x="820" y="-584" as="targetPoint" />
          </mxGeometry>
        </mxCell>
        <mxCell id="eMh7EWcEHwNUU9N83CI7-182" value="" style="endArrow=none;html=1;rounded=0;entryX=1;entryY=0.5;entryDx=0;entryDy=0;exitX=0;exitY=0.5;exitDx=0;exitDy=0;" edge="1" parent="1" source="eMh7EWcEHwNUU9N83CI7-162" target="eMh7EWcEHwNUU9N83CI7-172">
          <mxGeometry width="50" height="50" relative="1" as="geometry">
            <mxPoint x="710" y="-480" as="sourcePoint" />
            <mxPoint x="830" y="-574" as="targetPoint" />
          </mxGeometry>
        </mxCell>
        <mxCell id="eMh7EWcEHwNUU9N83CI7-183" value="" style="endArrow=none;html=1;rounded=0;exitX=0;exitY=0.5;exitDx=0;exitDy=0;entryX=1;entryY=0.5;entryDx=0;entryDy=0;" edge="1" parent="1" source="eMh7EWcEHwNUU9N83CI7-172" target="eMh7EWcEHwNUU9N83CI7-165">
          <mxGeometry width="50" height="50" relative="1" as="geometry">
            <mxPoint x="841" y="-480" as="sourcePoint" />
            <mxPoint x="840" y="-564" as="targetPoint" />
          </mxGeometry>
        </mxCell>
        <mxCell id="eMh7EWcEHwNUU9N83CI7-184" value="" style="endArrow=none;html=1;rounded=0;exitX=0.5;exitY=0;exitDx=0;exitDy=0;entryX=0.5;entryY=1;entryDx=0;entryDy=0;" edge="1" parent="1" source="eMh7EWcEHwNUU9N83CI7-165" target="eMh7EWcEHwNUU9N83CI7-173">
          <mxGeometry width="50" height="50" relative="1" as="geometry">
            <mxPoint x="851" y="-470" as="sourcePoint" />
            <mxPoint x="850" y="-554" as="targetPoint" />
          </mxGeometry>
        </mxCell>
        <mxCell id="eMh7EWcEHwNUU9N83CI7-185" value="" style="endArrow=none;html=1;rounded=0;exitX=0.5;exitY=0;exitDx=0;exitDy=0;entryX=0.5;entryY=1;entryDx=0;entryDy=0;" edge="1" parent="1" source="eMh7EWcEHwNUU9N83CI7-173" target="eMh7EWcEHwNUU9N83CI7-167">
          <mxGeometry width="50" height="50" relative="1" as="geometry">
            <mxPoint x="861" y="-460" as="sourcePoint" />
            <mxPoint x="860" y="-544" as="targetPoint" />
          </mxGeometry>
        </mxCell>
        <mxCell id="eMh7EWcEHwNUU9N83CI7-186" value="" style="endArrow=none;html=1;rounded=0;exitX=0.25;exitY=0;exitDx=0;exitDy=0;entryX=0.5;entryY=1;entryDx=0;entryDy=0;" edge="1" parent="1" source="eMh7EWcEHwNUU9N83CI7-162" target="eMh7EWcEHwNUU9N83CI7-175">
          <mxGeometry width="50" height="50" relative="1" as="geometry">
            <mxPoint x="871" y="-450" as="sourcePoint" />
            <mxPoint x="870" y="-534" as="targetPoint" />
          </mxGeometry>
        </mxCell>
        <mxCell id="eMh7EWcEHwNUU9N83CI7-187" value="" style="endArrow=none;html=1;rounded=0;exitX=0.5;exitY=0;exitDx=0;exitDy=0;entryX=0.75;entryY=1;entryDx=0;entryDy=0;" edge="1" parent="1" source="eMh7EWcEHwNUU9N83CI7-175" target="eMh7EWcEHwNUU9N83CI7-167">
          <mxGeometry width="50" height="50" relative="1" as="geometry">
            <mxPoint x="881" y="-440" as="sourcePoint" />
            <mxPoint x="880" y="-524" as="targetPoint" />
          </mxGeometry>
        </mxCell>
        <mxCell id="eMh7EWcEHwNUU9N83CI7-188" value="" style="endArrow=none;html=1;rounded=0;exitX=0;exitY=0.5;exitDx=0;exitDy=0;entryX=1;entryY=0.5;entryDx=0;entryDy=0;" edge="1" parent="1" source="eMh7EWcEHwNUU9N83CI7-174" target="eMh7EWcEHwNUU9N83CI7-167">
          <mxGeometry width="50" height="50" relative="1" as="geometry">
            <mxPoint x="891" y="-430" as="sourcePoint" />
            <mxPoint x="890" y="-514" as="targetPoint" />
          </mxGeometry>
        </mxCell>
        <mxCell id="eMh7EWcEHwNUU9N83CI7-189" value="" style="endArrow=none;html=1;rounded=0;exitX=0;exitY=0.5;exitDx=0;exitDy=0;entryX=1;entryY=0.5;entryDx=0;entryDy=0;" edge="1" parent="1" source="eMh7EWcEHwNUU9N83CI7-163" target="eMh7EWcEHwNUU9N83CI7-174">
          <mxGeometry width="50" height="50" relative="1" as="geometry">
            <mxPoint x="901" y="-420" as="sourcePoint" />
            <mxPoint x="900" y="-504" as="targetPoint" />
          </mxGeometry>
        </mxCell>
        <mxCell id="eMh7EWcEHwNUU9N83CI7-190" value="" style="endArrow=none;html=1;rounded=0;exitX=0.5;exitY=0;exitDx=0;exitDy=0;entryX=0.5;entryY=1;entryDx=0;entryDy=0;" edge="1" parent="1" source="eMh7EWcEHwNUU9N83CI7-164" target="eMh7EWcEHwNUU9N83CI7-170">
          <mxGeometry width="50" height="50" relative="1" as="geometry">
            <mxPoint x="911" y="-410" as="sourcePoint" />
            <mxPoint x="910" y="-494" as="targetPoint" />
          </mxGeometry>
        </mxCell>
        <mxCell id="eMh7EWcEHwNUU9N83CI7-191" value="" style="endArrow=none;html=1;rounded=0;exitX=0;exitY=0.5;exitDx=0;exitDy=0;entryX=1;entryY=0.5;entryDx=0;entryDy=0;" edge="1" parent="1" source="eMh7EWcEHwNUU9N83CI7-176" target="eMh7EWcEHwNUU9N83CI7-163">
          <mxGeometry width="50" height="50" relative="1" as="geometry">
            <mxPoint x="921" y="-400" as="sourcePoint" />
            <mxPoint x="920" y="-484" as="targetPoint" />
          </mxGeometry>
        </mxCell>
        <mxCell id="eMh7EWcEHwNUU9N83CI7-192" value="" style="endArrow=none;html=1;rounded=0;exitX=0;exitY=0.5;exitDx=0;exitDy=0;entryX=1;entryY=0.5;entryDx=0;entryDy=0;" edge="1" parent="1" source="eMh7EWcEHwNUU9N83CI7-166" target="eMh7EWcEHwNUU9N83CI7-176">
          <mxGeometry width="50" height="50" relative="1" as="geometry">
            <mxPoint x="931" y="-390" as="sourcePoint" />
            <mxPoint x="930" y="-474" as="targetPoint" />
          </mxGeometry>
        </mxCell>
        <mxCell id="eMh7EWcEHwNUU9N83CI7-193" value="" style="endArrow=none;html=1;rounded=0;exitX=0.25;exitY=0;exitDx=0;exitDy=0;entryX=0.5;entryY=1;entryDx=0;entryDy=0;" edge="1" parent="1" source="eMh7EWcEHwNUU9N83CI7-163" target="eMh7EWcEHwNUU9N83CI7-177">
          <mxGeometry width="50" height="50" relative="1" as="geometry">
            <mxPoint x="941" y="-380" as="sourcePoint" />
            <mxPoint x="940" y="-464" as="targetPoint" />
          </mxGeometry>
        </mxCell>
        <mxCell id="eMh7EWcEHwNUU9N83CI7-194" value="" style="endArrow=none;html=1;rounded=0;exitX=0.5;exitY=0;exitDx=0;exitDy=0;entryX=0.5;entryY=1;entryDx=0;entryDy=0;" edge="1" parent="1" source="eMh7EWcEHwNUU9N83CI7-177" target="eMh7EWcEHwNUU9N83CI7-168">
          <mxGeometry width="50" height="50" relative="1" as="geometry">
            <mxPoint x="951" y="-370" as="sourcePoint" />
            <mxPoint x="950" y="-454" as="targetPoint" />
          </mxGeometry>
        </mxCell>
        <mxCell id="eMh7EWcEHwNUU9N83CI7-195" value="" style="endArrow=none;html=1;rounded=0;exitX=0.5;exitY=1;exitDx=0;exitDy=0;entryX=0.75;entryY=0;entryDx=0;entryDy=0;" edge="1" parent="1" source="eMh7EWcEHwNUU9N83CI7-178" target="eMh7EWcEHwNUU9N83CI7-163">
          <mxGeometry width="50" height="50" relative="1" as="geometry">
            <mxPoint x="961" y="-360" as="sourcePoint" />
            <mxPoint x="960" y="-444" as="targetPoint" />
          </mxGeometry>
        </mxCell>
        <mxCell id="eMh7EWcEHwNUU9N83CI7-196" value="" style="endArrow=none;html=1;rounded=0;exitX=0.5;exitY=1;exitDx=0;exitDy=0;entryX=0.5;entryY=0;entryDx=0;entryDy=0;" edge="1" parent="1" source="eMh7EWcEHwNUU9N83CI7-169" target="eMh7EWcEHwNUU9N83CI7-178">
          <mxGeometry width="50" height="50" relative="1" as="geometry">
            <mxPoint x="971" y="-350" as="sourcePoint" />
            <mxPoint x="970" y="-434" as="targetPoint" />
          </mxGeometry>
        </mxCell>
        <mxCell id="eMh7EWcEHwNUU9N83CI7-197" value="&lt;font style=&quot;font-size: 17px;&quot;&gt;N&lt;/font&gt;" style="text;html=1;align=center;verticalAlign=middle;whiteSpace=wrap;rounded=0;" vertex="1" parent="1">
          <mxGeometry x="780" y="-760" width="60" height="30" as="geometry" />
        </mxCell>
        <mxCell id="eMh7EWcEHwNUU9N83CI7-198" value="&lt;font style=&quot;font-size: 17px;&quot;&gt;N&lt;/font&gt;" style="text;html=1;align=center;verticalAlign=middle;whiteSpace=wrap;rounded=0;" vertex="1" parent="1">
          <mxGeometry x="780" y="-550" width="60" height="30" as="geometry" />
        </mxCell>
        <mxCell id="eMh7EWcEHwNUU9N83CI7-199" value="&lt;font style=&quot;font-size: 17px;&quot;&gt;N&lt;/font&gt;" style="text;html=1;align=center;verticalAlign=middle;whiteSpace=wrap;rounded=0;" vertex="1" parent="1">
          <mxGeometry x="780" y="-440" width="60" height="30" as="geometry" />
        </mxCell>
        <mxCell id="eMh7EWcEHwNUU9N83CI7-200" value="&lt;font style=&quot;font-size: 17px;&quot;&gt;1&lt;/font&gt;" style="text;html=1;align=center;verticalAlign=middle;whiteSpace=wrap;rounded=0;" vertex="1" parent="1">
          <mxGeometry x="780" y="-289" width="60" height="30" as="geometry" />
        </mxCell>
        <mxCell id="eMh7EWcEHwNUU9N83CI7-201" value="&lt;font style=&quot;font-size: 17px;&quot;&gt;N&lt;/font&gt;" style="text;html=1;align=center;verticalAlign=middle;whiteSpace=wrap;rounded=0;" vertex="1" parent="1">
          <mxGeometry x="679" y="-506" width="60" height="30" as="geometry" />
        </mxCell>
        <mxCell id="eMh7EWcEHwNUU9N83CI7-202" value="&lt;font style=&quot;font-size: 17px;&quot;&gt;N&lt;/font&gt;" style="text;html=1;align=center;verticalAlign=middle;whiteSpace=wrap;rounded=0;" vertex="1" parent="1">
          <mxGeometry x="421" y="-506" width="60" height="30" as="geometry" />
        </mxCell>
        <mxCell id="eMh7EWcEHwNUU9N83CI7-203" value="&lt;font style=&quot;font-size: 17px;&quot;&gt;1&lt;/font&gt;" style="text;html=1;align=center;verticalAlign=middle;whiteSpace=wrap;rounded=0;" vertex="1" parent="1">
          <mxGeometry x="340" y="-550" width="60" height="30" as="geometry" />
        </mxCell>
        <mxCell id="eMh7EWcEHwNUU9N83CI7-204" value="&lt;font style=&quot;font-size: 17px;&quot;&gt;N&lt;/font&gt;" style="text;html=1;align=center;verticalAlign=middle;whiteSpace=wrap;rounded=0;" vertex="1" parent="1">
          <mxGeometry x="340" y="-760" width="60" height="30" as="geometry" />
        </mxCell>
        <mxCell id="eMh7EWcEHwNUU9N83CI7-205" value="&lt;font style=&quot;font-size: 17px;&quot;&gt;N&lt;/font&gt;" style="text;html=1;align=center;verticalAlign=middle;whiteSpace=wrap;rounded=0;" vertex="1" parent="1">
          <mxGeometry x="421" y="-823" width="60" height="30" as="geometry" />
        </mxCell>
        <mxCell id="eMh7EWcEHwNUU9N83CI7-206" value="&lt;font style=&quot;font-size: 17px;&quot;&gt;1&lt;/font&gt;" style="text;html=1;align=center;verticalAlign=middle;whiteSpace=wrap;rounded=0;" vertex="1" parent="1">
          <mxGeometry x="679" y="-823" width="60" height="30" as="geometry" />
        </mxCell>
        <mxCell id="eMh7EWcEHwNUU9N83CI7-207" value="&lt;font style=&quot;font-size: 17px;&quot;&gt;N&lt;/font&gt;" style="text;html=1;align=center;verticalAlign=middle;whiteSpace=wrap;rounded=0;" vertex="1" parent="1">
          <mxGeometry x="860" y="-823" width="60" height="30" as="geometry" />
        </mxCell>
        <mxCell id="eMh7EWcEHwNUU9N83CI7-208" value="&lt;font style=&quot;font-size: 17px;&quot;&gt;1&lt;/font&gt;" style="text;html=1;align=center;verticalAlign=middle;whiteSpace=wrap;rounded=0;" vertex="1" parent="1">
          <mxGeometry x="1110" y="-823" width="60" height="30" as="geometry" />
        </mxCell>
        <mxCell id="eMh7EWcEHwNUU9N83CI7-209" value="&lt;font style=&quot;font-size: 17px;&quot;&gt;N&lt;/font&gt;" style="text;html=1;align=center;verticalAlign=middle;whiteSpace=wrap;rounded=0;" vertex="1" parent="1">
          <mxGeometry x="530" y="-1010" width="60" height="30" as="geometry" />
        </mxCell>
        <mxCell id="eMh7EWcEHwNUU9N83CI7-210" value="&lt;font style=&quot;font-size: 17px;&quot;&gt;1&lt;/font&gt;" style="text;html=1;align=center;verticalAlign=middle;whiteSpace=wrap;rounded=0;" vertex="1" parent="1">
          <mxGeometry x="721" y="-870" width="60" height="30" as="geometry" />
        </mxCell>
        <mxCell id="eMh7EWcEHwNUU9N83CI7-211" value="&lt;font style=&quot;font-size: 17px;&quot;&gt;N&lt;/font&gt;" style="text;html=1;align=center;verticalAlign=middle;whiteSpace=wrap;rounded=0;" vertex="1" parent="1">
          <mxGeometry x="1050" y="-1010" width="60" height="30" as="geometry" />
        </mxCell>
        <mxCell id="eMh7EWcEHwNUU9N83CI7-212" value="&lt;font style=&quot;font-size: 17px;&quot;&gt;1&lt;/font&gt;" style="text;html=1;align=center;verticalAlign=middle;whiteSpace=wrap;rounded=0;" vertex="1" parent="1">
          <mxGeometry x="806" y="-868" width="60" height="30" as="geometry" />
        </mxCell>
        <mxCell id="eMh7EWcEHwNUU9N83CI7-213" value="ID" style="ellipse;whiteSpace=wrap;html=1;" vertex="1" parent="1">
          <mxGeometry x="2548" y="-645.5" width="120" height="60" as="geometry" />
        </mxCell>
        <mxCell id="eMh7EWcEHwNUU9N83CI7-214" value="name" style="ellipse;whiteSpace=wrap;html=1;" vertex="1" parent="1">
          <mxGeometry x="2678" y="-645.5" width="120" height="60" as="geometry" />
        </mxCell>
        <mxCell id="eMh7EWcEHwNUU9N83CI7-215" value="objectives" style="ellipse;whiteSpace=wrap;html=1;" vertex="1" parent="1">
          <mxGeometry x="2808" y="-666" width="120" height="60" as="geometry" />
        </mxCell>
        <mxCell id="eMh7EWcEHwNUU9N83CI7-216" value="elegibility" style="ellipse;whiteSpace=wrap;html=1;" vertex="1" parent="1">
          <mxGeometry x="2928" y="-705.5" width="120" height="60" as="geometry" />
        </mxCell>
        <mxCell id="eMh7EWcEHwNUU9N83CI7-217" value="picture" style="ellipse;whiteSpace=wrap;html=1;" vertex="1" parent="1">
          <mxGeometry x="2968" y="-772" width="120" height="60" as="geometry" />
        </mxCell>
        <mxCell id="eMh7EWcEHwNUU9N83CI7-218" value="stars" style="ellipse;whiteSpace=wrap;html=1;" vertex="1" parent="1">
          <mxGeometry x="2918" y="-832" width="120" height="60" as="geometry" />
        </mxCell>
        <mxCell id="eMh7EWcEHwNUU9N83CI7-219" value="created_date" style="ellipse;whiteSpace=wrap;html=1;" vertex="1" parent="1">
          <mxGeometry x="2788" y="-852" width="120" height="60" as="geometry" />
        </mxCell>
        <mxCell id="eMh7EWcEHwNUU9N83CI7-272" value="&lt;font style=&quot;font-size: 16px;&quot;&gt;Пользователь&lt;/font&gt;" style="rounded=0;whiteSpace=wrap;html=1;" vertex="1" parent="1">
          <mxGeometry x="2369" y="-442" width="160" height="80" as="geometry" />
        </mxCell>
        <mxCell id="eMh7EWcEHwNUU9N83CI7-273" value="&lt;font style=&quot;font-size: 16px;&quot;&gt;Курс&lt;/font&gt;" style="rounded=0;whiteSpace=wrap;html=1;" vertex="1" parent="1">
          <mxGeometry x="2368" y="-762" width="160" height="80" as="geometry" />
        </mxCell>
        <mxCell id="eMh7EWcEHwNUU9N83CI7-274" value="&lt;span style=&quot;font-size: 16px;&quot;&gt;Роль&lt;/span&gt;" style="rounded=0;whiteSpace=wrap;html=1;" vertex="1" parent="1">
          <mxGeometry x="2369" y="-161" width="160" height="80" as="geometry" />
        </mxCell>
        <mxCell id="eMh7EWcEHwNUU9N83CI7-275" value="&lt;font style=&quot;font-size: 16px;&quot;&gt;Блог&lt;/font&gt;" style="rounded=0;whiteSpace=wrap;html=1;" vertex="1" parent="1">
          <mxGeometry x="1928" y="-442" width="160" height="80" as="geometry" />
        </mxCell>
        <mxCell id="eMh7EWcEHwNUU9N83CI7-276" value="&lt;font style=&quot;font-size: 16px;&quot;&gt;Категория&lt;/font&gt;" style="rounded=0;whiteSpace=wrap;html=1;" vertex="1" parent="1">
          <mxGeometry x="2748" y="-1032" width="160" height="80" as="geometry" />
        </mxCell>
        <mxCell id="eMh7EWcEHwNUU9N83CI7-277" value="&lt;span style=&quot;font-size: 16px;&quot;&gt;Комментарий&lt;/span&gt;" style="rounded=0;whiteSpace=wrap;html=1;" vertex="1" parent="1">
          <mxGeometry x="1928" y="-762" width="160" height="80" as="geometry" />
        </mxCell>
        <mxCell id="eMh7EWcEHwNUU9N83CI7-278" value="&lt;span style=&quot;font-size: 16px;&quot;&gt;Ресурс&lt;/span&gt;" style="rounded=0;whiteSpace=wrap;html=1;" vertex="1" parent="1">
          <mxGeometry x="1938" y="-1032" width="160" height="80" as="geometry" />
        </mxCell>
        <mxCell id="eMh7EWcEHwNUU9N83CI7-279" value="&lt;span style=&quot;font-size: 16px;&quot;&gt;Тест&lt;/span&gt;" style="rounded=0;whiteSpace=wrap;html=1;" vertex="1" parent="1">
          <mxGeometry x="2368" y="-1032" width="160" height="80" as="geometry" />
        </mxCell>
        <mxCell id="eMh7EWcEHwNUU9N83CI7-280" value="&lt;font style=&quot;font-size: 16px;&quot;&gt;Имеет&lt;/font&gt;" style="rhombus;whiteSpace=wrap;html=1;" vertex="1" parent="1">
          <mxGeometry x="2368" y="-312" width="160" height="80" as="geometry" />
        </mxCell>
        <mxCell id="eMh7EWcEHwNUU9N83CI7-281" value="&lt;font style=&quot;font-size: 16px;&quot;&gt;Управляет&lt;/font&gt;" style="rhombus;whiteSpace=wrap;html=1;" vertex="1" parent="1">
          <mxGeometry x="2368" y="-606" width="160" height="80" as="geometry" />
        </mxCell>
        <mxCell id="eMh7EWcEHwNUU9N83CI7-282" value="&lt;font style=&quot;font-size: 16px;&quot;&gt;Управляет&lt;/font&gt;" style="rhombus;whiteSpace=wrap;html=1;" vertex="1" parent="1">
          <mxGeometry x="2148" y="-442" width="160" height="80" as="geometry" />
        </mxCell>
        <mxCell id="eMh7EWcEHwNUU9N83CI7-283" value="&lt;font style=&quot;font-size: 16px;&quot;&gt;Относится к&lt;/font&gt;" style="rhombus;whiteSpace=wrap;html=1;" vertex="1" parent="1">
          <mxGeometry x="1928" y="-606" width="160" height="80" as="geometry" />
        </mxCell>
        <mxCell id="eMh7EWcEHwNUU9N83CI7-284" value="&lt;font style=&quot;font-size: 16px;&quot;&gt;Относится к&lt;/font&gt;" style="rhombus;whiteSpace=wrap;html=1;" vertex="1" parent="1">
          <mxGeometry x="2148" y="-762" width="160" height="80" as="geometry" />
        </mxCell>
        <mxCell id="eMh7EWcEHwNUU9N83CI7-285" value="&lt;font style=&quot;font-size: 16px;&quot;&gt;Управляет&lt;/font&gt;" style="rhombus;whiteSpace=wrap;html=1;" vertex="1" parent="1">
          <mxGeometry x="2148" y="-606" width="160" height="80" as="geometry" />
        </mxCell>
        <mxCell id="eMh7EWcEHwNUU9N83CI7-286" value="&lt;font style=&quot;font-size: 16px;&quot;&gt;Относится к&lt;/font&gt;" style="rhombus;whiteSpace=wrap;html=1;" vertex="1" parent="1">
          <mxGeometry x="2588" y="-897" width="160" height="80" as="geometry" />
        </mxCell>
        <mxCell id="eMh7EWcEHwNUU9N83CI7-287" value="&lt;font style=&quot;font-size: 16px;&quot;&gt;Имеет&lt;/font&gt;" style="rhombus;whiteSpace=wrap;html=1;" vertex="1" parent="1">
          <mxGeometry x="2148" y="-896" width="160" height="80" as="geometry" />
        </mxCell>
        <mxCell id="eMh7EWcEHwNUU9N83CI7-288" value="&lt;font style=&quot;font-size: 16px;&quot;&gt;Имеет&lt;/font&gt;" style="rhombus;whiteSpace=wrap;html=1;" vertex="1" parent="1">
          <mxGeometry x="2368" y="-897" width="160" height="80" as="geometry" />
        </mxCell>
        <mxCell id="eMh7EWcEHwNUU9N83CI7-323" value="" style="endArrow=none;html=1;rounded=0;exitX=0.5;exitY=0;exitDx=0;exitDy=0;entryX=1;entryY=0.75;entryDx=0;entryDy=0;" edge="1" parent="1" source="eMh7EWcEHwNUU9N83CI7-213" target="eMh7EWcEHwNUU9N83CI7-273">
          <mxGeometry width="50" height="50" relative="1" as="geometry">
            <mxPoint x="2458" y="-807" as="sourcePoint" />
            <mxPoint x="2458" y="-752" as="targetPoint" />
          </mxGeometry>
        </mxCell>
        <mxCell id="eMh7EWcEHwNUU9N83CI7-324" value="" style="endArrow=none;html=1;rounded=0;exitX=0.5;exitY=0;exitDx=0;exitDy=0;entryX=1.016;entryY=0.692;entryDx=0;entryDy=0;entryPerimeter=0;" edge="1" parent="1" source="eMh7EWcEHwNUU9N83CI7-214" target="eMh7EWcEHwNUU9N83CI7-273">
          <mxGeometry width="50" height="50" relative="1" as="geometry">
            <mxPoint x="2618" y="-636" as="sourcePoint" />
            <mxPoint x="2538" y="-692" as="targetPoint" />
          </mxGeometry>
        </mxCell>
        <mxCell id="eMh7EWcEHwNUU9N83CI7-325" value="" style="endArrow=none;html=1;rounded=0;exitX=0.5;exitY=0;exitDx=0;exitDy=0;entryX=1.002;entryY=0.602;entryDx=0;entryDy=0;entryPerimeter=0;" edge="1" parent="1" source="eMh7EWcEHwNUU9N83CI7-215" target="eMh7EWcEHwNUU9N83CI7-273">
          <mxGeometry width="50" height="50" relative="1" as="geometry">
            <mxPoint x="2628" y="-626" as="sourcePoint" />
            <mxPoint x="2548" y="-682" as="targetPoint" />
          </mxGeometry>
        </mxCell>
        <mxCell id="eMh7EWcEHwNUU9N83CI7-326" value="" style="endArrow=none;html=1;rounded=0;exitX=0;exitY=0;exitDx=0;exitDy=0;entryX=1;entryY=0.5;entryDx=0;entryDy=0;" edge="1" parent="1" source="eMh7EWcEHwNUU9N83CI7-216" target="eMh7EWcEHwNUU9N83CI7-273">
          <mxGeometry width="50" height="50" relative="1" as="geometry">
            <mxPoint x="2638" y="-616" as="sourcePoint" />
            <mxPoint x="2558" y="-672" as="targetPoint" />
          </mxGeometry>
        </mxCell>
        <mxCell id="eMh7EWcEHwNUU9N83CI7-327" value="" style="endArrow=none;html=1;rounded=0;exitX=0;exitY=0.5;exitDx=0;exitDy=0;entryX=1.009;entryY=0.375;entryDx=0;entryDy=0;entryPerimeter=0;" edge="1" parent="1" source="eMh7EWcEHwNUU9N83CI7-217" target="eMh7EWcEHwNUU9N83CI7-273">
          <mxGeometry width="50" height="50" relative="1" as="geometry">
            <mxPoint x="2648" y="-606" as="sourcePoint" />
            <mxPoint x="2568" y="-662" as="targetPoint" />
          </mxGeometry>
        </mxCell>
        <mxCell id="eMh7EWcEHwNUU9N83CI7-328" value="" style="endArrow=none;html=1;rounded=0;exitX=0;exitY=1;exitDx=0;exitDy=0;entryX=1;entryY=0.25;entryDx=0;entryDy=0;" edge="1" parent="1" source="eMh7EWcEHwNUU9N83CI7-218" target="eMh7EWcEHwNUU9N83CI7-273">
          <mxGeometry width="50" height="50" relative="1" as="geometry">
            <mxPoint x="2658" y="-596" as="sourcePoint" />
            <mxPoint x="2578" y="-652" as="targetPoint" />
          </mxGeometry>
        </mxCell>
        <mxCell id="eMh7EWcEHwNUU9N83CI7-329" value="" style="endArrow=none;html=1;rounded=0;exitX=0;exitY=1;exitDx=0;exitDy=0;entryX=1.006;entryY=0.14;entryDx=0;entryDy=0;entryPerimeter=0;" edge="1" parent="1" source="eMh7EWcEHwNUU9N83CI7-219" target="eMh7EWcEHwNUU9N83CI7-273">
          <mxGeometry width="50" height="50" relative="1" as="geometry">
            <mxPoint x="2668" y="-586" as="sourcePoint" />
            <mxPoint x="2588" y="-642" as="targetPoint" />
          </mxGeometry>
        </mxCell>
        <mxCell id="eMh7EWcEHwNUU9N83CI7-330" value="ID" style="ellipse;whiteSpace=wrap;html=1;" vertex="1" parent="1">
          <mxGeometry x="2988" y="-1122" width="120" height="60" as="geometry" />
        </mxCell>
        <mxCell id="eMh7EWcEHwNUU9N83CI7-331" value="name" style="ellipse;whiteSpace=wrap;html=1;" vertex="1" parent="1">
          <mxGeometry x="2848" y="-1132" width="120" height="60" as="geometry" />
        </mxCell>
        <mxCell id="eMh7EWcEHwNUU9N83CI7-332" value="deleted" style="ellipse;whiteSpace=wrap;html=1;" vertex="1" parent="1">
          <mxGeometry x="2708" y="-1132" width="120" height="60" as="geometry" />
        </mxCell>
        <mxCell id="eMh7EWcEHwNUU9N83CI7-333" value="ID" style="ellipse;whiteSpace=wrap;html=1;" vertex="1" parent="1">
          <mxGeometry x="2098" y="-1127" width="120" height="60" as="geometry" />
        </mxCell>
        <mxCell id="eMh7EWcEHwNUU9N83CI7-334" value="name" style="ellipse;whiteSpace=wrap;html=1;" vertex="1" parent="1">
          <mxGeometry x="1958" y="-1137" width="120" height="60" as="geometry" />
        </mxCell>
        <mxCell id="eMh7EWcEHwNUU9N83CI7-335" value="deleted" style="ellipse;whiteSpace=wrap;html=1;" vertex="1" parent="1">
          <mxGeometry x="1818" y="-1137" width="120" height="60" as="geometry" />
        </mxCell>
        <mxCell id="eMh7EWcEHwNUU9N83CI7-336" value="File" style="ellipse;whiteSpace=wrap;html=1;" vertex="1" parent="1">
          <mxGeometry x="1738" y="-1067" width="120" height="60" as="geometry" />
        </mxCell>
        <mxCell id="eMh7EWcEHwNUU9N83CI7-337" value="Subsection" style="ellipse;whiteSpace=wrap;html=1;" vertex="1" parent="1">
          <mxGeometry x="1728" y="-982" width="120" height="60" as="geometry" />
        </mxCell>
        <mxCell id="eMh7EWcEHwNUU9N83CI7-338" value="ID" style="ellipse;whiteSpace=wrap;html=1;" vertex="1" parent="1">
          <mxGeometry x="2389" y="-1442" width="120" height="60" as="geometry" />
        </mxCell>
        <mxCell id="eMh7EWcEHwNUU9N83CI7-339" value="title" style="ellipse;whiteSpace=wrap;html=1;" vertex="1" parent="1">
          <mxGeometry x="2258" y="-1412" width="120" height="60" as="geometry" />
        </mxCell>
        <mxCell id="eMh7EWcEHwNUU9N83CI7-340" value="description" style="ellipse;whiteSpace=wrap;html=1;" vertex="1" parent="1">
          <mxGeometry x="2518" y="-1412" width="120" height="60" as="geometry" />
        </mxCell>
        <mxCell id="eMh7EWcEHwNUU9N83CI7-341" value="startTime" style="ellipse;whiteSpace=wrap;html=1;" vertex="1" parent="1">
          <mxGeometry x="2588" y="-1352" width="120" height="60" as="geometry" />
        </mxCell>
        <mxCell id="eMh7EWcEHwNUU9N83CI7-342" value="endTime" style="ellipse;whiteSpace=wrap;html=1;" vertex="1" parent="1">
          <mxGeometry x="2188" y="-1352" width="120" height="60" as="geometry" />
        </mxCell>
        <mxCell id="eMh7EWcEHwNUU9N83CI7-343" value="attemptLimit" style="ellipse;whiteSpace=wrap;html=1;" vertex="1" parent="1">
          <mxGeometry x="2168" y="-1282" width="120" height="60" as="geometry" />
        </mxCell>
        <mxCell id="eMh7EWcEHwNUU9N83CI7-344" value="totalMarks" style="ellipse;whiteSpace=wrap;html=1;" vertex="1" parent="1">
          <mxGeometry x="2608" y="-1282" width="120" height="60" as="geometry" />
        </mxCell>
        <mxCell id="eMh7EWcEHwNUU9N83CI7-345" value="deleted" style="ellipse;whiteSpace=wrap;html=1;" vertex="1" parent="1">
          <mxGeometry x="2628" y="-1212" width="120" height="60" as="geometry" />
        </mxCell>
        <mxCell id="eMh7EWcEHwNUU9N83CI7-346" value="duration" style="ellipse;whiteSpace=wrap;html=1;" vertex="1" parent="1">
          <mxGeometry x="2148" y="-1212" width="120" height="60" as="geometry" />
        </mxCell>
        <mxCell id="eMh7EWcEHwNUU9N83CI7-347" value="ID" style="ellipse;whiteSpace=wrap;html=1;" vertex="1" parent="1">
          <mxGeometry x="1808" y="-892" width="120" height="60" as="geometry" />
        </mxCell>
        <mxCell id="eMh7EWcEHwNUU9N83CI7-348" value="created_at" style="ellipse;whiteSpace=wrap;html=1;" vertex="1" parent="1">
          <mxGeometry x="1708" y="-832" width="120" height="60" as="geometry" />
        </mxCell>
        <mxCell id="eMh7EWcEHwNUU9N83CI7-349" value="owner_id" style="ellipse;whiteSpace=wrap;html=1;" vertex="1" parent="1">
          <mxGeometry x="1682" y="-762" width="120" height="60" as="geometry" />
        </mxCell>
        <mxCell id="eMh7EWcEHwNUU9N83CI7-350" value="deleted" style="ellipse;whiteSpace=wrap;html=1;" vertex="1" parent="1">
          <mxGeometry x="1958" y="-890" width="120" height="60" as="geometry" />
        </mxCell>
        <mxCell id="eMh7EWcEHwNUU9N83CI7-351" value="blogID" style="ellipse;whiteSpace=wrap;html=1;" vertex="1" parent="1">
          <mxGeometry x="1682" y="-682" width="120" height="60" as="geometry" />
        </mxCell>
        <mxCell id="eMh7EWcEHwNUU9N83CI7-352" value="liked_users" style="ellipse;whiteSpace=wrap;html=1;" vertex="1" parent="1">
          <mxGeometry x="1808" y="-656" width="120" height="60" as="geometry" />
        </mxCell>
        <mxCell id="eMh7EWcEHwNUU9N83CI7-353" value="ID" style="ellipse;whiteSpace=wrap;html=1;" vertex="1" parent="1">
          <mxGeometry x="1808" y="-526" width="120" height="60" as="geometry" />
        </mxCell>
        <mxCell id="eMh7EWcEHwNUU9N83CI7-354" value="title" style="ellipse;whiteSpace=wrap;html=1;" vertex="1" parent="1">
          <mxGeometry x="1682" y="-472" width="120" height="60" as="geometry" />
        </mxCell>
        <mxCell id="eMh7EWcEHwNUU9N83CI7-355" value="summary" style="ellipse;whiteSpace=wrap;html=1;" vertex="1" parent="1">
          <mxGeometry x="1682" y="-402" width="120" height="60" as="geometry" />
        </mxCell>
        <mxCell id="eMh7EWcEHwNUU9N83CI7-356" value="created_at" style="ellipse;whiteSpace=wrap;html=1;" vertex="1" parent="1">
          <mxGeometry x="1682" y="-332" width="120" height="60" as="geometry" />
        </mxCell>
        <mxCell id="eMh7EWcEHwNUU9N83CI7-357" value="liked_users" style="ellipse;whiteSpace=wrap;html=1;" vertex="1" parent="1">
          <mxGeometry x="1728" y="-262" width="120" height="60" as="geometry" />
        </mxCell>
        <mxCell id="eMh7EWcEHwNUU9N83CI7-358" value="picture" style="ellipse;whiteSpace=wrap;html=1;" vertex="1" parent="1">
          <mxGeometry x="1868" y="-241" width="120" height="60" as="geometry" />
        </mxCell>
        <mxCell id="eMh7EWcEHwNUU9N83CI7-359" value="deleted" style="ellipse;whiteSpace=wrap;html=1;" vertex="1" parent="1">
          <mxGeometry x="2008" y="-241" width="120" height="60" as="geometry" />
        </mxCell>
        <mxCell id="eMh7EWcEHwNUU9N83CI7-360" value="ID" style="ellipse;whiteSpace=wrap;html=1;" vertex="1" parent="1">
          <mxGeometry x="2548" y="-558" width="120" height="60" as="geometry" />
        </mxCell>
        <mxCell id="eMh7EWcEHwNUU9N83CI7-361" value="firstName" style="ellipse;whiteSpace=wrap;html=1;" vertex="1" parent="1">
          <mxGeometry x="2678" y="-542" width="120" height="60" as="geometry" />
        </mxCell>
        <mxCell id="eMh7EWcEHwNUU9N83CI7-362" value="lastName" style="ellipse;whiteSpace=wrap;html=1;" vertex="1" parent="1">
          <mxGeometry x="2798" y="-515.5" width="120" height="60" as="geometry" />
        </mxCell>
        <mxCell id="eMh7EWcEHwNUU9N83CI7-363" value="email" style="ellipse;whiteSpace=wrap;html=1;" vertex="1" parent="1">
          <mxGeometry x="2898" y="-472" width="120" height="60" as="geometry" />
        </mxCell>
        <mxCell id="eMh7EWcEHwNUU9N83CI7-364" value="password" style="ellipse;whiteSpace=wrap;html=1;" vertex="1" parent="1">
          <mxGeometry x="2958" y="-412" width="120" height="60" as="geometry" />
        </mxCell>
        <mxCell id="eMh7EWcEHwNUU9N83CI7-365" value="address" style="ellipse;whiteSpace=wrap;html=1;" vertex="1" parent="1">
          <mxGeometry x="2888" y="-352" width="120" height="60" as="geometry" />
        </mxCell>
        <mxCell id="eMh7EWcEHwNUU9N83CI7-366" value="username" style="ellipse;whiteSpace=wrap;html=1;" vertex="1" parent="1">
          <mxGeometry x="2808" y="-296" width="120" height="60" as="geometry" />
        </mxCell>
        <mxCell id="eMh7EWcEHwNUU9N83CI7-367" value="created_at" style="ellipse;whiteSpace=wrap;html=1;" vertex="1" parent="1">
          <mxGeometry x="2708" y="-251" width="120" height="60" as="geometry" />
        </mxCell>
        <mxCell id="eMh7EWcEHwNUU9N83CI7-368" value="enabled" style="ellipse;whiteSpace=wrap;html=1;" vertex="1" parent="1">
          <mxGeometry x="2578" y="-251" width="120" height="60" as="geometry" />
        </mxCell>
        <mxCell id="eMh7EWcEHwNUU9N83CI7-369" value="USER" style="ellipse;whiteSpace=wrap;html=1;" vertex="1" parent="1">
          <mxGeometry x="2168" y="-52" width="120" height="60" as="geometry" />
        </mxCell>
        <mxCell id="eMh7EWcEHwNUU9N83CI7-370" value="ADMIN" style="ellipse;whiteSpace=wrap;html=1;" vertex="1" parent="1">
          <mxGeometry x="2389" y="-52" width="120" height="60" as="geometry" />
        </mxCell>
        <mxCell id="eMh7EWcEHwNUU9N83CI7-371" value="TEACHER" style="ellipse;whiteSpace=wrap;html=1;" vertex="1" parent="1">
          <mxGeometry x="2608" y="-52" width="120" height="60" as="geometry" />
        </mxCell>
        <mxCell id="eMh7EWcEHwNUU9N83CI7-372" value="" style="endArrow=none;html=1;rounded=0;exitX=0.5;exitY=1;exitDx=0;exitDy=0;entryX=0.997;entryY=0.132;entryDx=0;entryDy=0;entryPerimeter=0;" edge="1" parent="1" source="eMh7EWcEHwNUU9N83CI7-360" target="eMh7EWcEHwNUU9N83CI7-272">
          <mxGeometry width="50" height="50" relative="1" as="geometry">
            <mxPoint x="2618" y="-635" as="sourcePoint" />
            <mxPoint x="2538" y="-692" as="targetPoint" />
          </mxGeometry>
        </mxCell>
        <mxCell id="eMh7EWcEHwNUU9N83CI7-373" value="" style="endArrow=none;html=1;rounded=0;exitX=0;exitY=1;exitDx=0;exitDy=0;entryX=1.003;entryY=0.156;entryDx=0;entryDy=0;entryPerimeter=0;" edge="1" parent="1" source="eMh7EWcEHwNUU9N83CI7-361" target="eMh7EWcEHwNUU9N83CI7-272">
          <mxGeometry width="50" height="50" relative="1" as="geometry">
            <mxPoint x="2628" y="-625" as="sourcePoint" />
            <mxPoint x="2548" y="-682" as="targetPoint" />
          </mxGeometry>
        </mxCell>
        <mxCell id="eMh7EWcEHwNUU9N83CI7-374" value="" style="endArrow=none;html=1;rounded=0;exitX=1;exitY=0.25;exitDx=0;exitDy=0;entryX=0;entryY=1;entryDx=0;entryDy=0;" edge="1" parent="1" source="eMh7EWcEHwNUU9N83CI7-272" target="eMh7EWcEHwNUU9N83CI7-362">
          <mxGeometry width="50" height="50" relative="1" as="geometry">
            <mxPoint x="2638" y="-615" as="sourcePoint" />
            <mxPoint x="2558" y="-672" as="targetPoint" />
          </mxGeometry>
        </mxCell>
        <mxCell id="eMh7EWcEHwNUU9N83CI7-375" value="" style="endArrow=none;html=1;rounded=0;exitX=1.006;exitY=0.311;exitDx=0;exitDy=0;entryX=0;entryY=0.5;entryDx=0;entryDy=0;exitPerimeter=0;" edge="1" parent="1" source="eMh7EWcEHwNUU9N83CI7-272" target="eMh7EWcEHwNUU9N83CI7-363">
          <mxGeometry width="50" height="50" relative="1" as="geometry">
            <mxPoint x="2539" y="-412" as="sourcePoint" />
            <mxPoint x="2825" y="-454" as="targetPoint" />
          </mxGeometry>
        </mxCell>
        <mxCell id="eMh7EWcEHwNUU9N83CI7-376" value="" style="endArrow=none;html=1;rounded=0;exitX=1.009;exitY=0.38;exitDx=0;exitDy=0;entryX=0;entryY=0.5;entryDx=0;entryDy=0;exitPerimeter=0;" edge="1" parent="1" source="eMh7EWcEHwNUU9N83CI7-272" target="eMh7EWcEHwNUU9N83CI7-364">
          <mxGeometry width="50" height="50" relative="1" as="geometry">
            <mxPoint x="2549" y="-402" as="sourcePoint" />
            <mxPoint x="2835" y="-444" as="targetPoint" />
          </mxGeometry>
        </mxCell>
        <mxCell id="eMh7EWcEHwNUU9N83CI7-377" value="" style="endArrow=none;html=1;rounded=0;exitX=1.012;exitY=0.435;exitDx=0;exitDy=0;entryX=0;entryY=0;entryDx=0;entryDy=0;exitPerimeter=0;" edge="1" parent="1" source="eMh7EWcEHwNUU9N83CI7-272" target="eMh7EWcEHwNUU9N83CI7-365">
          <mxGeometry width="50" height="50" relative="1" as="geometry">
            <mxPoint x="2559" y="-392" as="sourcePoint" />
            <mxPoint x="2845" y="-434" as="targetPoint" />
          </mxGeometry>
        </mxCell>
        <mxCell id="eMh7EWcEHwNUU9N83CI7-378" value="" style="endArrow=none;html=1;rounded=0;exitX=1;exitY=0.5;exitDx=0;exitDy=0;entryX=0;entryY=0;entryDx=0;entryDy=0;" edge="1" parent="1" source="eMh7EWcEHwNUU9N83CI7-272" target="eMh7EWcEHwNUU9N83CI7-366">
          <mxGeometry width="50" height="50" relative="1" as="geometry">
            <mxPoint x="2569" y="-382" as="sourcePoint" />
            <mxPoint x="2855" y="-424" as="targetPoint" />
          </mxGeometry>
        </mxCell>
        <mxCell id="eMh7EWcEHwNUU9N83CI7-379" value="" style="endArrow=none;html=1;rounded=0;exitX=1;exitY=0.605;exitDx=0;exitDy=0;entryX=0.5;entryY=0;entryDx=0;entryDy=0;exitPerimeter=0;" edge="1" parent="1" source="eMh7EWcEHwNUU9N83CI7-272" target="eMh7EWcEHwNUU9N83CI7-367">
          <mxGeometry width="50" height="50" relative="1" as="geometry">
            <mxPoint x="2579" y="-372" as="sourcePoint" />
            <mxPoint x="2865" y="-414" as="targetPoint" />
          </mxGeometry>
        </mxCell>
        <mxCell id="eMh7EWcEHwNUU9N83CI7-380" value="" style="endArrow=none;html=1;rounded=0;exitX=1;exitY=0.75;exitDx=0;exitDy=0;entryX=0.5;entryY=0;entryDx=0;entryDy=0;" edge="1" parent="1" source="eMh7EWcEHwNUU9N83CI7-272" target="eMh7EWcEHwNUU9N83CI7-368">
          <mxGeometry width="50" height="50" relative="1" as="geometry">
            <mxPoint x="2589" y="-362" as="sourcePoint" />
            <mxPoint x="2875" y="-404" as="targetPoint" />
          </mxGeometry>
        </mxCell>
        <mxCell id="eMh7EWcEHwNUU9N83CI7-381" value="" style="endArrow=none;html=1;rounded=0;exitX=0.75;exitY=1;exitDx=0;exitDy=0;entryX=0;entryY=0;entryDx=0;entryDy=0;" edge="1" parent="1" source="eMh7EWcEHwNUU9N83CI7-274" target="eMh7EWcEHwNUU9N83CI7-371">
          <mxGeometry width="50" height="50" relative="1" as="geometry">
            <mxPoint x="2599" y="-332" as="sourcePoint" />
            <mxPoint x="2885" y="-374" as="targetPoint" />
          </mxGeometry>
        </mxCell>
        <mxCell id="eMh7EWcEHwNUU9N83CI7-382" value="" style="endArrow=none;html=1;rounded=0;exitX=0.5;exitY=0;exitDx=0;exitDy=0;entryX=0.5;entryY=1;entryDx=0;entryDy=0;" edge="1" parent="1" source="eMh7EWcEHwNUU9N83CI7-370" target="eMh7EWcEHwNUU9N83CI7-274">
          <mxGeometry width="50" height="50" relative="1" as="geometry">
            <mxPoint x="2609" y="-322" as="sourcePoint" />
            <mxPoint x="2895" y="-364" as="targetPoint" />
          </mxGeometry>
        </mxCell>
        <mxCell id="eMh7EWcEHwNUU9N83CI7-383" value="" style="endArrow=none;html=1;rounded=0;exitX=0.5;exitY=0;exitDx=0;exitDy=0;entryX=0.25;entryY=1;entryDx=0;entryDy=0;" edge="1" parent="1" source="eMh7EWcEHwNUU9N83CI7-369" target="eMh7EWcEHwNUU9N83CI7-274">
          <mxGeometry width="50" height="50" relative="1" as="geometry">
            <mxPoint x="2619" y="-312" as="sourcePoint" />
            <mxPoint x="2905" y="-354" as="targetPoint" />
          </mxGeometry>
        </mxCell>
        <mxCell id="eMh7EWcEHwNUU9N83CI7-384" value="" style="endArrow=none;html=1;rounded=0;exitX=0.5;exitY=0;exitDx=0;exitDy=0;entryX=0.75;entryY=1;entryDx=0;entryDy=0;" edge="1" parent="1" source="eMh7EWcEHwNUU9N83CI7-359" target="eMh7EWcEHwNUU9N83CI7-275">
          <mxGeometry width="50" height="50" relative="1" as="geometry">
            <mxPoint x="2629" y="-322" as="sourcePoint" />
            <mxPoint x="2915" y="-364" as="targetPoint" />
          </mxGeometry>
        </mxCell>
        <mxCell id="eMh7EWcEHwNUU9N83CI7-385" value="" style="endArrow=none;html=1;rounded=0;exitX=0.5;exitY=0;exitDx=0;exitDy=0;entryX=0.5;entryY=1;entryDx=0;entryDy=0;" edge="1" parent="1" source="eMh7EWcEHwNUU9N83CI7-358" target="eMh7EWcEHwNUU9N83CI7-275">
          <mxGeometry width="50" height="50" relative="1" as="geometry">
            <mxPoint x="1792" y="-272" as="sourcePoint" />
            <mxPoint x="2078" y="-314" as="targetPoint" />
          </mxGeometry>
        </mxCell>
        <mxCell id="eMh7EWcEHwNUU9N83CI7-386" value="" style="endArrow=none;html=1;rounded=0;exitX=1;exitY=0;exitDx=0;exitDy=0;entryX=0.25;entryY=1;entryDx=0;entryDy=0;" edge="1" parent="1" source="eMh7EWcEHwNUU9N83CI7-357" target="eMh7EWcEHwNUU9N83CI7-275">
          <mxGeometry width="50" height="50" relative="1" as="geometry">
            <mxPoint x="1938" y="-231" as="sourcePoint" />
            <mxPoint x="2018" y="-352" as="targetPoint" />
          </mxGeometry>
        </mxCell>
        <mxCell id="eMh7EWcEHwNUU9N83CI7-387" value="" style="endArrow=none;html=1;rounded=0;exitX=1;exitY=0.5;exitDx=0;exitDy=0;entryX=0;entryY=0.75;entryDx=0;entryDy=0;" edge="1" parent="1" source="eMh7EWcEHwNUU9N83CI7-356" target="eMh7EWcEHwNUU9N83CI7-275">
          <mxGeometry width="50" height="50" relative="1" as="geometry">
            <mxPoint x="1948" y="-221" as="sourcePoint" />
            <mxPoint x="2028" y="-342" as="targetPoint" />
          </mxGeometry>
        </mxCell>
        <mxCell id="eMh7EWcEHwNUU9N83CI7-388" value="" style="endArrow=none;html=1;rounded=0;exitX=1;exitY=0.5;exitDx=0;exitDy=0;entryX=0;entryY=0.5;entryDx=0;entryDy=0;" edge="1" parent="1" source="eMh7EWcEHwNUU9N83CI7-355" target="eMh7EWcEHwNUU9N83CI7-275">
          <mxGeometry width="50" height="50" relative="1" as="geometry">
            <mxPoint x="1958" y="-211" as="sourcePoint" />
            <mxPoint x="2038" y="-332" as="targetPoint" />
          </mxGeometry>
        </mxCell>
        <mxCell id="eMh7EWcEHwNUU9N83CI7-389" value="" style="endArrow=none;html=1;rounded=0;exitX=1;exitY=0.5;exitDx=0;exitDy=0;entryX=0;entryY=0.25;entryDx=0;entryDy=0;" edge="1" parent="1" source="eMh7EWcEHwNUU9N83CI7-354" target="eMh7EWcEHwNUU9N83CI7-275">
          <mxGeometry width="50" height="50" relative="1" as="geometry">
            <mxPoint x="1968" y="-201" as="sourcePoint" />
            <mxPoint x="2048" y="-322" as="targetPoint" />
          </mxGeometry>
        </mxCell>
        <mxCell id="eMh7EWcEHwNUU9N83CI7-390" value="" style="endArrow=none;html=1;rounded=0;exitX=0.25;exitY=0;exitDx=0;exitDy=0;entryX=1;entryY=1;entryDx=0;entryDy=0;" edge="1" parent="1" source="eMh7EWcEHwNUU9N83CI7-275" target="eMh7EWcEHwNUU9N83CI7-353">
          <mxGeometry width="50" height="50" relative="1" as="geometry">
            <mxPoint x="1978" y="-191" as="sourcePoint" />
            <mxPoint x="2058" y="-312" as="targetPoint" />
          </mxGeometry>
        </mxCell>
        <mxCell id="eMh7EWcEHwNUU9N83CI7-391" value="" style="endArrow=none;html=1;rounded=0;exitX=1;exitY=0;exitDx=0;exitDy=0;entryX=0.25;entryY=1;entryDx=0;entryDy=0;" edge="1" parent="1" source="eMh7EWcEHwNUU9N83CI7-352" target="eMh7EWcEHwNUU9N83CI7-277">
          <mxGeometry width="50" height="50" relative="1" as="geometry">
            <mxPoint x="1988" y="-181" as="sourcePoint" />
            <mxPoint x="2068" y="-302" as="targetPoint" />
          </mxGeometry>
        </mxCell>
        <mxCell id="eMh7EWcEHwNUU9N83CI7-392" value="" style="endArrow=none;html=1;rounded=0;exitX=1;exitY=0;exitDx=0;exitDy=0;entryX=0;entryY=0.75;entryDx=0;entryDy=0;" edge="1" parent="1" source="eMh7EWcEHwNUU9N83CI7-351" target="eMh7EWcEHwNUU9N83CI7-277">
          <mxGeometry width="50" height="50" relative="1" as="geometry">
            <mxPoint x="1921" y="-637" as="sourcePoint" />
            <mxPoint x="1978" y="-672" as="targetPoint" />
          </mxGeometry>
        </mxCell>
        <mxCell id="eMh7EWcEHwNUU9N83CI7-393" value="" style="endArrow=none;html=1;rounded=0;exitX=1;exitY=0.5;exitDx=0;exitDy=0;entryX=0.009;entryY=0.554;entryDx=0;entryDy=0;entryPerimeter=0;" edge="1" parent="1" source="eMh7EWcEHwNUU9N83CI7-349" target="eMh7EWcEHwNUU9N83CI7-277">
          <mxGeometry width="50" height="50" relative="1" as="geometry">
            <mxPoint x="1931" y="-627" as="sourcePoint" />
            <mxPoint x="1988" y="-662" as="targetPoint" />
          </mxGeometry>
        </mxCell>
        <mxCell id="eMh7EWcEHwNUU9N83CI7-394" value="" style="endArrow=none;html=1;rounded=0;exitX=1;exitY=1;exitDx=0;exitDy=0;entryX=0;entryY=0.25;entryDx=0;entryDy=0;" edge="1" parent="1" source="eMh7EWcEHwNUU9N83CI7-348" target="eMh7EWcEHwNUU9N83CI7-277">
          <mxGeometry width="50" height="50" relative="1" as="geometry">
            <mxPoint x="1941" y="-617" as="sourcePoint" />
            <mxPoint x="1998" y="-652" as="targetPoint" />
          </mxGeometry>
        </mxCell>
        <mxCell id="eMh7EWcEHwNUU9N83CI7-395" value="" style="endArrow=none;html=1;rounded=0;exitX=0.25;exitY=0;exitDx=0;exitDy=0;entryX=0.5;entryY=1;entryDx=0;entryDy=0;" edge="1" parent="1" source="eMh7EWcEHwNUU9N83CI7-277" target="eMh7EWcEHwNUU9N83CI7-347">
          <mxGeometry width="50" height="50" relative="1" as="geometry">
            <mxPoint x="1951" y="-607" as="sourcePoint" />
            <mxPoint x="2008" y="-642" as="targetPoint" />
          </mxGeometry>
        </mxCell>
        <mxCell id="eMh7EWcEHwNUU9N83CI7-396" value="" style="endArrow=none;html=1;rounded=0;exitX=0.5;exitY=0;exitDx=0;exitDy=0;entryX=0.5;entryY=1;entryDx=0;entryDy=0;" edge="1" parent="1" source="eMh7EWcEHwNUU9N83CI7-277" target="eMh7EWcEHwNUU9N83CI7-350">
          <mxGeometry width="50" height="50" relative="1" as="geometry">
            <mxPoint x="1961" y="-597" as="sourcePoint" />
            <mxPoint x="2018" y="-632" as="targetPoint" />
          </mxGeometry>
        </mxCell>
        <mxCell id="eMh7EWcEHwNUU9N83CI7-397" value="" style="endArrow=none;html=1;rounded=0;exitX=0;exitY=0.75;exitDx=0;exitDy=0;entryX=1;entryY=0.5;entryDx=0;entryDy=0;" edge="1" parent="1" source="eMh7EWcEHwNUU9N83CI7-278" target="eMh7EWcEHwNUU9N83CI7-337">
          <mxGeometry width="50" height="50" relative="1" as="geometry">
            <mxPoint x="1971" y="-587" as="sourcePoint" />
            <mxPoint x="2028" y="-622" as="targetPoint" />
          </mxGeometry>
        </mxCell>
        <mxCell id="eMh7EWcEHwNUU9N83CI7-398" value="" style="endArrow=none;html=1;rounded=0;exitX=0;exitY=0.5;exitDx=0;exitDy=0;entryX=1;entryY=1;entryDx=0;entryDy=0;" edge="1" parent="1" source="eMh7EWcEHwNUU9N83CI7-278" target="eMh7EWcEHwNUU9N83CI7-336">
          <mxGeometry width="50" height="50" relative="1" as="geometry">
            <mxPoint x="1948" y="-962" as="sourcePoint" />
            <mxPoint x="1858" y="-942" as="targetPoint" />
          </mxGeometry>
        </mxCell>
        <mxCell id="eMh7EWcEHwNUU9N83CI7-399" value="" style="endArrow=none;html=1;rounded=0;exitX=0;exitY=0.25;exitDx=0;exitDy=0;entryX=0.5;entryY=1;entryDx=0;entryDy=0;" edge="1" parent="1" source="eMh7EWcEHwNUU9N83CI7-278" target="eMh7EWcEHwNUU9N83CI7-335">
          <mxGeometry width="50" height="50" relative="1" as="geometry">
            <mxPoint x="1958" y="-952" as="sourcePoint" />
            <mxPoint x="1868" y="-932" as="targetPoint" />
          </mxGeometry>
        </mxCell>
        <mxCell id="eMh7EWcEHwNUU9N83CI7-400" value="" style="endArrow=none;html=1;rounded=0;exitX=0.5;exitY=1;exitDx=0;exitDy=0;entryX=0.5;entryY=0;entryDx=0;entryDy=0;" edge="1" parent="1" source="eMh7EWcEHwNUU9N83CI7-334" target="eMh7EWcEHwNUU9N83CI7-278">
          <mxGeometry width="50" height="50" relative="1" as="geometry">
            <mxPoint x="1968" y="-942" as="sourcePoint" />
            <mxPoint x="1878" y="-922" as="targetPoint" />
          </mxGeometry>
        </mxCell>
        <mxCell id="eMh7EWcEHwNUU9N83CI7-401" value="" style="endArrow=none;html=1;rounded=0;exitX=0;exitY=1;exitDx=0;exitDy=0;entryX=0.75;entryY=0;entryDx=0;entryDy=0;" edge="1" parent="1" source="eMh7EWcEHwNUU9N83CI7-333" target="eMh7EWcEHwNUU9N83CI7-278">
          <mxGeometry width="50" height="50" relative="1" as="geometry">
            <mxPoint x="1978" y="-932" as="sourcePoint" />
            <mxPoint x="1888" y="-912" as="targetPoint" />
          </mxGeometry>
        </mxCell>
        <mxCell id="eMh7EWcEHwNUU9N83CI7-402" value="" style="endArrow=none;html=1;rounded=0;exitX=0;exitY=1;exitDx=0;exitDy=0;entryX=0.927;entryY=-0.027;entryDx=0;entryDy=0;entryPerimeter=0;" edge="1" parent="1" source="eMh7EWcEHwNUU9N83CI7-345" target="eMh7EWcEHwNUU9N83CI7-279">
          <mxGeometry width="50" height="50" relative="1" as="geometry">
            <mxPoint x="1988" y="-922" as="sourcePoint" />
            <mxPoint x="1898" y="-902" as="targetPoint" />
          </mxGeometry>
        </mxCell>
        <mxCell id="eMh7EWcEHwNUU9N83CI7-403" value="" style="endArrow=none;html=1;rounded=0;exitX=0;exitY=1;exitDx=0;exitDy=0;entryX=0.845;entryY=-0.02;entryDx=0;entryDy=0;entryPerimeter=0;" edge="1" parent="1" source="eMh7EWcEHwNUU9N83CI7-344" target="eMh7EWcEHwNUU9N83CI7-279">
          <mxGeometry width="50" height="50" relative="1" as="geometry">
            <mxPoint x="2655" y="-1151" as="sourcePoint" />
            <mxPoint x="2530" y="-1026" as="targetPoint" />
          </mxGeometry>
        </mxCell>
        <mxCell id="eMh7EWcEHwNUU9N83CI7-404" value="" style="endArrow=none;html=1;rounded=0;exitX=0;exitY=1;exitDx=0;exitDy=0;entryX=0.75;entryY=0;entryDx=0;entryDy=0;" edge="1" parent="1" source="eMh7EWcEHwNUU9N83CI7-341" target="eMh7EWcEHwNUU9N83CI7-279">
          <mxGeometry width="50" height="50" relative="1" as="geometry">
            <mxPoint x="2665" y="-1141" as="sourcePoint" />
            <mxPoint x="2540" y="-1016" as="targetPoint" />
          </mxGeometry>
        </mxCell>
        <mxCell id="eMh7EWcEHwNUU9N83CI7-405" value="" style="endArrow=none;html=1;rounded=0;exitX=0.302;exitY=0.986;exitDx=0;exitDy=0;entryX=0.668;entryY=0.005;entryDx=0;entryDy=0;entryPerimeter=0;exitPerimeter=0;" edge="1" parent="1" source="eMh7EWcEHwNUU9N83CI7-340" target="eMh7EWcEHwNUU9N83CI7-279">
          <mxGeometry width="50" height="50" relative="1" as="geometry">
            <mxPoint x="2675" y="-1131" as="sourcePoint" />
            <mxPoint x="2550" y="-1006" as="targetPoint" />
          </mxGeometry>
        </mxCell>
        <mxCell id="eMh7EWcEHwNUU9N83CI7-406" value="" style="endArrow=none;html=1;rounded=0;exitX=0.5;exitY=1;exitDx=0;exitDy=0;entryX=0.5;entryY=0;entryDx=0;entryDy=0;" edge="1" parent="1" source="eMh7EWcEHwNUU9N83CI7-338" target="eMh7EWcEHwNUU9N83CI7-279">
          <mxGeometry width="50" height="50" relative="1" as="geometry">
            <mxPoint x="2685" y="-1121" as="sourcePoint" />
            <mxPoint x="2448" y="-1042" as="targetPoint" />
          </mxGeometry>
        </mxCell>
        <mxCell id="eMh7EWcEHwNUU9N83CI7-407" value="" style="endArrow=none;html=1;rounded=0;exitX=1;exitY=1;exitDx=0;exitDy=0;entryX=0.383;entryY=-0.04;entryDx=0;entryDy=0;entryPerimeter=0;" edge="1" parent="1" source="eMh7EWcEHwNUU9N83CI7-339" target="eMh7EWcEHwNUU9N83CI7-279">
          <mxGeometry width="50" height="50" relative="1" as="geometry">
            <mxPoint x="2695" y="-1111" as="sourcePoint" />
            <mxPoint x="2570" y="-986" as="targetPoint" />
          </mxGeometry>
        </mxCell>
        <mxCell id="eMh7EWcEHwNUU9N83CI7-408" value="" style="endArrow=none;html=1;rounded=0;exitX=1;exitY=1;exitDx=0;exitDy=0;entryX=0.25;entryY=0;entryDx=0;entryDy=0;" edge="1" parent="1" source="eMh7EWcEHwNUU9N83CI7-342" target="eMh7EWcEHwNUU9N83CI7-279">
          <mxGeometry width="50" height="50" relative="1" as="geometry">
            <mxPoint x="2705" y="-1101" as="sourcePoint" />
            <mxPoint x="2580" y="-976" as="targetPoint" />
          </mxGeometry>
        </mxCell>
        <mxCell id="eMh7EWcEHwNUU9N83CI7-409" value="" style="endArrow=none;html=1;rounded=0;exitX=1;exitY=1;exitDx=0;exitDy=0;entryX=0.153;entryY=-0.055;entryDx=0;entryDy=0;entryPerimeter=0;" edge="1" parent="1" source="eMh7EWcEHwNUU9N83CI7-343" target="eMh7EWcEHwNUU9N83CI7-279">
          <mxGeometry width="50" height="50" relative="1" as="geometry">
            <mxPoint x="2715" y="-1091" as="sourcePoint" />
            <mxPoint x="2590" y="-966" as="targetPoint" />
          </mxGeometry>
        </mxCell>
        <mxCell id="eMh7EWcEHwNUU9N83CI7-410" value="" style="endArrow=none;html=1;rounded=0;exitX=1;exitY=1;exitDx=0;exitDy=0;entryX=0.057;entryY=-0.025;entryDx=0;entryDy=0;entryPerimeter=0;" edge="1" parent="1" source="eMh7EWcEHwNUU9N83CI7-346" target="eMh7EWcEHwNUU9N83CI7-279">
          <mxGeometry width="50" height="50" relative="1" as="geometry">
            <mxPoint x="2725" y="-1081" as="sourcePoint" />
            <mxPoint x="2600" y="-956" as="targetPoint" />
          </mxGeometry>
        </mxCell>
        <mxCell id="eMh7EWcEHwNUU9N83CI7-411" value="" style="endArrow=none;html=1;rounded=0;exitX=0.5;exitY=1;exitDx=0;exitDy=0;entryX=0.25;entryY=0;entryDx=0;entryDy=0;" edge="1" parent="1" source="eMh7EWcEHwNUU9N83CI7-332" target="eMh7EWcEHwNUU9N83CI7-276">
          <mxGeometry width="50" height="50" relative="1" as="geometry">
            <mxPoint x="2655" y="-1151" as="sourcePoint" />
            <mxPoint x="2526" y="-1024" as="targetPoint" />
          </mxGeometry>
        </mxCell>
        <mxCell id="eMh7EWcEHwNUU9N83CI7-412" value="" style="endArrow=none;html=1;rounded=0;exitX=0.5;exitY=1;exitDx=0;exitDy=0;entryX=0.5;entryY=0;entryDx=0;entryDy=0;" edge="1" parent="1" source="eMh7EWcEHwNUU9N83CI7-331" target="eMh7EWcEHwNUU9N83CI7-276">
          <mxGeometry width="50" height="50" relative="1" as="geometry">
            <mxPoint x="2665" y="-1141" as="sourcePoint" />
            <mxPoint x="2536" y="-1014" as="targetPoint" />
          </mxGeometry>
        </mxCell>
        <mxCell id="eMh7EWcEHwNUU9N83CI7-413" value="" style="endArrow=none;html=1;rounded=0;exitX=0;exitY=1;exitDx=0;exitDy=0;entryX=0.75;entryY=0;entryDx=0;entryDy=0;" edge="1" parent="1" source="eMh7EWcEHwNUU9N83CI7-330" target="eMh7EWcEHwNUU9N83CI7-276">
          <mxGeometry width="50" height="50" relative="1" as="geometry">
            <mxPoint x="2675" y="-1131" as="sourcePoint" />
            <mxPoint x="2546" y="-1004" as="targetPoint" />
          </mxGeometry>
        </mxCell>
        <mxCell id="eMh7EWcEHwNUU9N83CI7-424" value="" style="group;rotation=90;" vertex="1" connectable="0" parent="1">
          <mxGeometry x="2430" y="-212" width="50" height="10" as="geometry" />
        </mxCell>
        <mxCell id="eMh7EWcEHwNUU9N83CI7-422" value="" style="endArrow=none;html=1;rounded=0;" edge="1" parent="eMh7EWcEHwNUU9N83CI7-424">
          <mxGeometry width="50" height="50" relative="1" as="geometry">
            <mxPoint x="17.857142857142858" y="-20" as="sourcePoint" />
            <mxPoint x="17.857142857142858" y="50" as="targetPoint" />
          </mxGeometry>
        </mxCell>
        <mxCell id="eMh7EWcEHwNUU9N83CI7-423" value="" style="endArrow=none;html=1;rounded=0;" edge="1" parent="eMh7EWcEHwNUU9N83CI7-424">
          <mxGeometry width="50" height="50" relative="1" as="geometry">
            <mxPoint x="14.285714285714286" y="47" as="sourcePoint" />
            <mxPoint x="21.42857142857143" y="47" as="targetPoint" />
          </mxGeometry>
        </mxCell>
        <mxCell id="eMh7EWcEHwNUU9N83CI7-432" value="" style="group" vertex="1" connectable="0" parent="1">
          <mxGeometry x="2442" y="-362" width="10" height="50" as="geometry" />
        </mxCell>
        <mxCell id="eMh7EWcEHwNUU9N83CI7-429" value="" style="endArrow=none;html=1;rounded=0;" edge="1" parent="eMh7EWcEHwNUU9N83CI7-432">
          <mxGeometry width="50" height="50" relative="1" as="geometry">
            <mxPoint x="10" y="8.779661016949149" as="sourcePoint" />
            <mxPoint y="8.779661016949149" as="targetPoint" />
          </mxGeometry>
        </mxCell>
        <mxCell id="eMh7EWcEHwNUU9N83CI7-426" value="" style="endArrow=none;html=1;rounded=0;" edge="1" parent="eMh7EWcEHwNUU9N83CI7-432">
          <mxGeometry width="50" height="50" relative="1" as="geometry">
            <mxPoint x="5" y="50" as="sourcePoint" />
            <mxPoint x="5" as="targetPoint" />
          </mxGeometry>
        </mxCell>
        <mxCell id="eMh7EWcEHwNUU9N83CI7-427" value="" style="endArrow=none;html=1;rounded=0;" edge="1" parent="eMh7EWcEHwNUU9N83CI7-432">
          <mxGeometry width="50" height="50" relative="1" as="geometry">
            <mxPoint x="10" y="5.0847457627118615" as="sourcePoint" />
            <mxPoint y="5.0847457627118615" as="targetPoint" />
          </mxGeometry>
        </mxCell>
        <mxCell id="eMh7EWcEHwNUU9N83CI7-434" value="" style="endArrow=none;html=1;rounded=0;" edge="1" parent="1">
          <mxGeometry width="50" height="50" relative="1" as="geometry">
            <mxPoint x="2359" y="-397" as="sourcePoint" />
            <mxPoint x="2359" y="-407" as="targetPoint" />
          </mxGeometry>
        </mxCell>
        <mxCell id="eMh7EWcEHwNUU9N83CI7-435" value="" style="endArrow=none;html=1;rounded=0;exitX=1.007;exitY=0.502;exitDx=0;exitDy=0;exitPerimeter=0;" edge="1" parent="1" source="eMh7EWcEHwNUU9N83CI7-282">
          <mxGeometry width="50" height="50" relative="1" as="geometry">
            <mxPoint x="2318" y="-402" as="sourcePoint" />
            <mxPoint x="2368" y="-402" as="targetPoint" />
          </mxGeometry>
        </mxCell>
        <mxCell id="eMh7EWcEHwNUU9N83CI7-436" value="" style="endArrow=none;html=1;rounded=0;" edge="1" parent="1">
          <mxGeometry width="50" height="50" relative="1" as="geometry">
            <mxPoint x="2363" y="-397" as="sourcePoint" />
            <mxPoint x="2363" y="-407" as="targetPoint" />
          </mxGeometry>
        </mxCell>
        <mxCell id="eMh7EWcEHwNUU9N83CI7-438" value="" style="endArrow=none;html=1;rounded=0;" edge="1" parent="1">
          <mxGeometry width="50" height="50" relative="1" as="geometry">
            <mxPoint x="2097" y="-407" as="sourcePoint" />
            <mxPoint x="2097" y="-397" as="targetPoint" />
          </mxGeometry>
        </mxCell>
        <mxCell id="eMh7EWcEHwNUU9N83CI7-439" value="" style="endArrow=none;html=1;rounded=0;exitX=0;exitY=0.5;exitDx=0;exitDy=0;" edge="1" parent="1" source="eMh7EWcEHwNUU9N83CI7-282">
          <mxGeometry width="50" height="50" relative="1" as="geometry">
            <mxPoint x="2138" y="-402" as="sourcePoint" />
            <mxPoint x="2088" y="-402" as="targetPoint" />
          </mxGeometry>
        </mxCell>
        <mxCell id="eMh7EWcEHwNUU9N83CI7-440" value="" style="endArrow=none;html=1;rounded=0;" edge="1" parent="1">
          <mxGeometry width="50" height="50" relative="1" as="geometry">
            <mxPoint x="2093" y="-407" as="sourcePoint" />
            <mxPoint x="2093" y="-397" as="targetPoint" />
          </mxGeometry>
        </mxCell>
        <mxCell id="eMh7EWcEHwNUU9N83CI7-442" value="" style="endArrow=none;html=1;rounded=0;" edge="1" parent="1">
          <mxGeometry width="50" height="50" relative="1" as="geometry">
            <mxPoint x="2014" y="-673.2203389830509" as="sourcePoint" />
            <mxPoint x="2004" y="-673.2203389830509" as="targetPoint" />
          </mxGeometry>
        </mxCell>
        <mxCell id="eMh7EWcEHwNUU9N83CI7-443" value="" style="endArrow=none;html=1;rounded=0;exitX=0.5;exitY=0;exitDx=0;exitDy=0;" edge="1" parent="1" source="eMh7EWcEHwNUU9N83CI7-283">
          <mxGeometry width="50" height="50" relative="1" as="geometry">
            <mxPoint x="2009" y="-632" as="sourcePoint" />
            <mxPoint x="2009" y="-682" as="targetPoint" />
          </mxGeometry>
        </mxCell>
        <mxCell id="eMh7EWcEHwNUU9N83CI7-444" value="" style="endArrow=none;html=1;rounded=0;" edge="1" parent="1">
          <mxGeometry width="50" height="50" relative="1" as="geometry">
            <mxPoint x="2014" y="-676.9152542372881" as="sourcePoint" />
            <mxPoint x="2004" y="-676.9152542372881" as="targetPoint" />
          </mxGeometry>
        </mxCell>
        <mxCell id="eMh7EWcEHwNUU9N83CI7-446" value="" style="endArrow=none;html=1;rounded=0;" edge="1" parent="1">
          <mxGeometry width="50" height="50" relative="1" as="geometry">
            <mxPoint x="2003" y="-451" as="sourcePoint" />
            <mxPoint x="2013" y="-451" as="targetPoint" />
          </mxGeometry>
        </mxCell>
        <mxCell id="eMh7EWcEHwNUU9N83CI7-447" value="" style="endArrow=none;html=1;rounded=0;exitX=0.5;exitY=1;exitDx=0;exitDy=0;" edge="1" parent="1" source="eMh7EWcEHwNUU9N83CI7-283">
          <mxGeometry width="50" height="50" relative="1" as="geometry">
            <mxPoint x="2008" y="-492" as="sourcePoint" />
            <mxPoint x="2008" y="-442" as="targetPoint" />
          </mxGeometry>
        </mxCell>
        <mxCell id="eMh7EWcEHwNUU9N83CI7-450" value="" style="endArrow=none;html=1;rounded=0;" edge="1" parent="1">
          <mxGeometry width="50" height="50" relative="1" as="geometry">
            <mxPoint x="2453" y="-673.2203389830509" as="sourcePoint" />
            <mxPoint x="2443" y="-673.2203389830509" as="targetPoint" />
          </mxGeometry>
        </mxCell>
        <mxCell id="eMh7EWcEHwNUU9N83CI7-451" value="" style="endArrow=none;html=1;rounded=0;exitX=0.5;exitY=0;exitDx=0;exitDy=0;" edge="1" parent="1" source="eMh7EWcEHwNUU9N83CI7-281">
          <mxGeometry width="50" height="50" relative="1" as="geometry">
            <mxPoint x="2448" y="-632" as="sourcePoint" />
            <mxPoint x="2448" y="-682" as="targetPoint" />
          </mxGeometry>
        </mxCell>
        <mxCell id="eMh7EWcEHwNUU9N83CI7-452" value="" style="endArrow=none;html=1;rounded=0;" edge="1" parent="1">
          <mxGeometry width="50" height="50" relative="1" as="geometry">
            <mxPoint x="2453" y="-676.9152542372881" as="sourcePoint" />
            <mxPoint x="2443" y="-676.9152542372881" as="targetPoint" />
          </mxGeometry>
        </mxCell>
        <mxCell id="eMh7EWcEHwNUU9N83CI7-454" value="" style="endArrow=none;html=1;rounded=0;" edge="1" parent="1">
          <mxGeometry width="50" height="50" relative="1" as="geometry">
            <mxPoint x="2442" y="-451" as="sourcePoint" />
            <mxPoint x="2452" y="-451" as="targetPoint" />
          </mxGeometry>
        </mxCell>
        <mxCell id="eMh7EWcEHwNUU9N83CI7-455" value="" style="endArrow=none;html=1;rounded=0;exitX=0.5;exitY=1;exitDx=0;exitDy=0;" edge="1" parent="1" source="eMh7EWcEHwNUU9N83CI7-281">
          <mxGeometry width="50" height="50" relative="1" as="geometry">
            <mxPoint x="2447" y="-492" as="sourcePoint" />
            <mxPoint x="2447" y="-442" as="targetPoint" />
          </mxGeometry>
        </mxCell>
        <mxCell id="eMh7EWcEHwNUU9N83CI7-456" value="" style="endArrow=none;html=1;rounded=0;" edge="1" parent="1">
          <mxGeometry width="50" height="50" relative="1" as="geometry">
            <mxPoint x="2442" y="-447" as="sourcePoint" />
            <mxPoint x="2452" y="-447" as="targetPoint" />
          </mxGeometry>
        </mxCell>
        <mxCell id="eMh7EWcEHwNUU9N83CI7-461" value="" style="endArrow=none;html=1;rounded=0;" edge="1" parent="1">
          <mxGeometry width="50" height="50" relative="1" as="geometry">
            <mxPoint x="2359" y="-716" as="sourcePoint" />
            <mxPoint x="2359" y="-726" as="targetPoint" />
          </mxGeometry>
        </mxCell>
        <mxCell id="eMh7EWcEHwNUU9N83CI7-462" value="" style="endArrow=none;html=1;rounded=0;exitX=1.011;exitY=0.505;exitDx=0;exitDy=0;exitPerimeter=0;" edge="1" parent="1" source="eMh7EWcEHwNUU9N83CI7-284">
          <mxGeometry width="50" height="50" relative="1" as="geometry">
            <mxPoint x="2318" y="-721" as="sourcePoint" />
            <mxPoint x="2368" y="-721" as="targetPoint" />
          </mxGeometry>
        </mxCell>
        <mxCell id="eMh7EWcEHwNUU9N83CI7-463" value="" style="endArrow=none;html=1;rounded=0;" edge="1" parent="1">
          <mxGeometry width="50" height="50" relative="1" as="geometry">
            <mxPoint x="2363" y="-716" as="sourcePoint" />
            <mxPoint x="2363" y="-726" as="targetPoint" />
          </mxGeometry>
        </mxCell>
        <mxCell id="eMh7EWcEHwNUU9N83CI7-465" value="" style="endArrow=none;html=1;rounded=0;" edge="1" parent="1">
          <mxGeometry width="50" height="50" relative="1" as="geometry">
            <mxPoint x="2097" y="-727" as="sourcePoint" />
            <mxPoint x="2097" y="-717" as="targetPoint" />
          </mxGeometry>
        </mxCell>
        <mxCell id="eMh7EWcEHwNUU9N83CI7-466" value="" style="endArrow=none;html=1;rounded=0;exitX=0;exitY=0.5;exitDx=0;exitDy=0;" edge="1" parent="1" source="eMh7EWcEHwNUU9N83CI7-284">
          <mxGeometry width="50" height="50" relative="1" as="geometry">
            <mxPoint x="2138" y="-722" as="sourcePoint" />
            <mxPoint x="2088" y="-722" as="targetPoint" />
          </mxGeometry>
        </mxCell>
        <mxCell id="eMh7EWcEHwNUU9N83CI7-468" value="" style="group" vertex="1" connectable="0" parent="1">
          <mxGeometry x="2058" y="-682" width="10" height="50" as="geometry" />
        </mxCell>
        <mxCell id="eMh7EWcEHwNUU9N83CI7-469" value="" style="endArrow=none;html=1;rounded=0;" edge="1" parent="eMh7EWcEHwNUU9N83CI7-468">
          <mxGeometry width="50" height="50" relative="1" as="geometry">
            <mxPoint x="10" y="8.779661016949149" as="sourcePoint" />
            <mxPoint y="8.779661016949149" as="targetPoint" />
          </mxGeometry>
        </mxCell>
        <mxCell id="eMh7EWcEHwNUU9N83CI7-470" value="" style="endArrow=none;html=1;rounded=0;" edge="1" parent="eMh7EWcEHwNUU9N83CI7-468">
          <mxGeometry width="50" height="50" relative="1" as="geometry">
            <mxPoint x="5" y="50" as="sourcePoint" />
            <mxPoint x="5" as="targetPoint" />
          </mxGeometry>
        </mxCell>
        <mxCell id="eMh7EWcEHwNUU9N83CI7-471" value="" style="endArrow=none;html=1;rounded=0;" edge="1" parent="eMh7EWcEHwNUU9N83CI7-468">
          <mxGeometry width="50" height="50" relative="1" as="geometry">
            <mxPoint x="10" y="5.0847457627118615" as="sourcePoint" />
            <mxPoint y="5.0847457627118615" as="targetPoint" />
          </mxGeometry>
        </mxCell>
        <mxCell id="eMh7EWcEHwNUU9N83CI7-472" value="" style="group;rotation=90;" vertex="1" connectable="0" parent="1">
          <mxGeometry x="2338" y="-452" width="10" height="50" as="geometry" />
        </mxCell>
        <mxCell id="eMh7EWcEHwNUU9N83CI7-473" value="" style="endArrow=none;html=1;rounded=0;" edge="1" parent="eMh7EWcEHwNUU9N83CI7-472">
          <mxGeometry width="50" height="50" relative="1" as="geometry">
            <mxPoint x="21" y="30" as="sourcePoint" />
            <mxPoint x="21" y="20" as="targetPoint" />
          </mxGeometry>
        </mxCell>
        <mxCell id="eMh7EWcEHwNUU9N83CI7-474" value="" style="endArrow=none;html=1;rounded=0;" edge="1" parent="eMh7EWcEHwNUU9N83CI7-472">
          <mxGeometry width="50" height="50" relative="1" as="geometry">
            <mxPoint x="-20" y="25" as="sourcePoint" />
            <mxPoint x="30" y="25" as="targetPoint" />
          </mxGeometry>
        </mxCell>
        <mxCell id="eMh7EWcEHwNUU9N83CI7-475" value="" style="endArrow=none;html=1;rounded=0;" edge="1" parent="eMh7EWcEHwNUU9N83CI7-472">
          <mxGeometry width="50" height="50" relative="1" as="geometry">
            <mxPoint x="25" y="30" as="sourcePoint" />
            <mxPoint x="25" y="20" as="targetPoint" />
          </mxGeometry>
        </mxCell>
        <mxCell id="eMh7EWcEHwNUU9N83CI7-476" value="" style="endArrow=none;html=1;rounded=0;entryX=1;entryY=0.5;entryDx=0;entryDy=0;" edge="1" parent="1" target="eMh7EWcEHwNUU9N83CI7-285">
          <mxGeometry width="50" height="50" relative="1" as="geometry">
            <mxPoint x="2318" y="-427" as="sourcePoint" />
            <mxPoint x="2348" y="-512" as="targetPoint" />
          </mxGeometry>
        </mxCell>
        <mxCell id="eMh7EWcEHwNUU9N83CI7-477" value="" style="endArrow=none;html=1;rounded=0;exitX=0;exitY=0.5;exitDx=0;exitDy=0;" edge="1" parent="1" source="eMh7EWcEHwNUU9N83CI7-285">
          <mxGeometry width="50" height="50" relative="1" as="geometry">
            <mxPoint x="2138" y="-558" as="sourcePoint" />
            <mxPoint x="2062" y="-634" as="targetPoint" />
          </mxGeometry>
        </mxCell>
        <mxCell id="eMh7EWcEHwNUU9N83CI7-478" value="" style="group;rotation=90;" vertex="1" connectable="0" parent="1">
          <mxGeometry x="2338" y="-772" width="10" height="50" as="geometry" />
        </mxCell>
        <mxCell id="eMh7EWcEHwNUU9N83CI7-479" value="" style="endArrow=none;html=1;rounded=0;" edge="1" parent="eMh7EWcEHwNUU9N83CI7-478">
          <mxGeometry width="50" height="50" relative="1" as="geometry">
            <mxPoint x="21" y="30" as="sourcePoint" />
            <mxPoint x="21" y="20" as="targetPoint" />
          </mxGeometry>
        </mxCell>
        <mxCell id="eMh7EWcEHwNUU9N83CI7-480" value="" style="endArrow=none;html=1;rounded=0;" edge="1" parent="eMh7EWcEHwNUU9N83CI7-478">
          <mxGeometry width="50" height="50" relative="1" as="geometry">
            <mxPoint x="-20" y="25" as="sourcePoint" />
            <mxPoint x="30" y="25" as="targetPoint" />
          </mxGeometry>
        </mxCell>
        <mxCell id="eMh7EWcEHwNUU9N83CI7-481" value="" style="endArrow=none;html=1;rounded=0;" edge="1" parent="eMh7EWcEHwNUU9N83CI7-478">
          <mxGeometry width="50" height="50" relative="1" as="geometry">
            <mxPoint x="25" y="30" as="sourcePoint" />
            <mxPoint x="25" y="20" as="targetPoint" />
          </mxGeometry>
        </mxCell>
        <mxCell id="eMh7EWcEHwNUU9N83CI7-482" value="" style="group;rotation=0;" vertex="1" connectable="0" parent="1">
          <mxGeometry x="2078" y="-952" width="10" height="50" as="geometry" />
        </mxCell>
        <mxCell id="eMh7EWcEHwNUU9N83CI7-483" value="" style="endArrow=none;html=1;rounded=0;" edge="1" parent="eMh7EWcEHwNUU9N83CI7-482">
          <mxGeometry width="50" height="50" relative="1" as="geometry">
            <mxPoint x="10" y="9" as="sourcePoint" />
            <mxPoint y="9" as="targetPoint" />
          </mxGeometry>
        </mxCell>
        <mxCell id="eMh7EWcEHwNUU9N83CI7-484" value="" style="endArrow=none;html=1;rounded=0;" edge="1" parent="eMh7EWcEHwNUU9N83CI7-482">
          <mxGeometry width="50" height="50" relative="1" as="geometry">
            <mxPoint x="5" y="50" as="sourcePoint" />
            <mxPoint x="5" as="targetPoint" />
          </mxGeometry>
        </mxCell>
        <mxCell id="eMh7EWcEHwNUU9N83CI7-485" value="" style="endArrow=none;html=1;rounded=0;" edge="1" parent="eMh7EWcEHwNUU9N83CI7-482">
          <mxGeometry width="50" height="50" relative="1" as="geometry">
            <mxPoint x="10" y="5" as="sourcePoint" />
            <mxPoint y="5" as="targetPoint" />
          </mxGeometry>
        </mxCell>
        <mxCell id="eMh7EWcEHwNUU9N83CI7-486" value="" style="endArrow=none;html=1;rounded=0;entryX=1;entryY=0.5;entryDx=0;entryDy=0;" edge="1" parent="1" target="eMh7EWcEHwNUU9N83CI7-287">
          <mxGeometry width="50" height="50" relative="1" as="geometry">
            <mxPoint x="2318" y="-746" as="sourcePoint" />
            <mxPoint x="2313" y="-860" as="targetPoint" />
          </mxGeometry>
        </mxCell>
        <mxCell id="eMh7EWcEHwNUU9N83CI7-487" value="" style="endArrow=none;html=1;rounded=0;entryX=0;entryY=0.5;entryDx=0;entryDy=0;" edge="1" parent="1" target="eMh7EWcEHwNUU9N83CI7-287">
          <mxGeometry width="50" height="50" relative="1" as="geometry">
            <mxPoint x="2084" y="-902" as="sourcePoint" />
            <mxPoint x="2318" y="-846" as="targetPoint" />
          </mxGeometry>
        </mxCell>
        <mxCell id="eMh7EWcEHwNUU9N83CI7-489" value="" style="endArrow=none;html=1;rounded=0;" edge="1" parent="1">
          <mxGeometry width="50" height="50" relative="1" as="geometry">
            <mxPoint x="2442" y="-771" as="sourcePoint" />
            <mxPoint x="2452" y="-771" as="targetPoint" />
          </mxGeometry>
        </mxCell>
        <mxCell id="eMh7EWcEHwNUU9N83CI7-490" value="" style="endArrow=none;html=1;rounded=0;exitX=0.5;exitY=1;exitDx=0;exitDy=0;" edge="1" parent="1" source="eMh7EWcEHwNUU9N83CI7-288">
          <mxGeometry width="50" height="50" relative="1" as="geometry">
            <mxPoint x="2447" y="-812" as="sourcePoint" />
            <mxPoint x="2447" y="-762" as="targetPoint" />
          </mxGeometry>
        </mxCell>
        <mxCell id="eMh7EWcEHwNUU9N83CI7-493" value="" style="endArrow=none;html=1;rounded=0;" edge="1" parent="1">
          <mxGeometry width="50" height="50" relative="1" as="geometry">
            <mxPoint x="2453" y="-943" as="sourcePoint" />
            <mxPoint x="2443" y="-943" as="targetPoint" />
          </mxGeometry>
        </mxCell>
        <mxCell id="eMh7EWcEHwNUU9N83CI7-494" value="" style="endArrow=none;html=1;rounded=0;exitX=0.5;exitY=0;exitDx=0;exitDy=0;" edge="1" parent="1" source="eMh7EWcEHwNUU9N83CI7-288">
          <mxGeometry width="50" height="50" relative="1" as="geometry">
            <mxPoint x="2448" y="-902" as="sourcePoint" />
            <mxPoint x="2448" y="-952" as="targetPoint" />
          </mxGeometry>
        </mxCell>
        <mxCell id="eMh7EWcEHwNUU9N83CI7-495" value="" style="endArrow=none;html=1;rounded=0;" edge="1" parent="1">
          <mxGeometry width="50" height="50" relative="1" as="geometry">
            <mxPoint x="2453" y="-947" as="sourcePoint" />
            <mxPoint x="2443" y="-947" as="targetPoint" />
          </mxGeometry>
        </mxCell>
        <mxCell id="eMh7EWcEHwNUU9N83CI7-496" value="" style="group;rotation=-180;" vertex="1" connectable="0" parent="1">
          <mxGeometry x="2504" y="-812" width="10" height="50" as="geometry" />
        </mxCell>
        <mxCell id="eMh7EWcEHwNUU9N83CI7-497" value="" style="endArrow=none;html=1;rounded=0;" edge="1" parent="eMh7EWcEHwNUU9N83CI7-496">
          <mxGeometry width="50" height="50" relative="1" as="geometry">
            <mxPoint y="41" as="sourcePoint" />
            <mxPoint x="10" y="41" as="targetPoint" />
          </mxGeometry>
        </mxCell>
        <mxCell id="eMh7EWcEHwNUU9N83CI7-498" value="" style="endArrow=none;html=1;rounded=0;" edge="1" parent="eMh7EWcEHwNUU9N83CI7-496">
          <mxGeometry width="50" height="50" relative="1" as="geometry">
            <mxPoint x="5" as="sourcePoint" />
            <mxPoint x="5" y="50" as="targetPoint" />
          </mxGeometry>
        </mxCell>
        <mxCell id="eMh7EWcEHwNUU9N83CI7-499" value="" style="endArrow=none;html=1;rounded=0;" edge="1" parent="eMh7EWcEHwNUU9N83CI7-496">
          <mxGeometry width="50" height="50" relative="1" as="geometry">
            <mxPoint y="45" as="sourcePoint" />
            <mxPoint x="10" y="45" as="targetPoint" />
          </mxGeometry>
        </mxCell>
        <mxCell id="eMh7EWcEHwNUU9N83CI7-500" value="" style="endArrow=none;html=1;rounded=0;entryX=0;entryY=0.5;entryDx=0;entryDy=0;" edge="1" parent="1" target="eMh7EWcEHwNUU9N83CI7-286">
          <mxGeometry width="50" height="50" relative="1" as="geometry">
            <mxPoint x="2508" y="-812" as="sourcePoint" />
            <mxPoint x="2318" y="-846" as="targetPoint" />
          </mxGeometry>
        </mxCell>
        <mxCell id="eMh7EWcEHwNUU9N83CI7-501" value="" style="group;rotation=0;" vertex="1" connectable="0" parent="1">
          <mxGeometry x="2818" y="-952" width="10" height="50" as="geometry" />
        </mxCell>
        <mxCell id="eMh7EWcEHwNUU9N83CI7-502" value="" style="endArrow=none;html=1;rounded=0;" edge="1" parent="eMh7EWcEHwNUU9N83CI7-501">
          <mxGeometry width="50" height="50" relative="1" as="geometry">
            <mxPoint x="10" y="9" as="sourcePoint" />
            <mxPoint y="9" as="targetPoint" />
          </mxGeometry>
        </mxCell>
        <mxCell id="eMh7EWcEHwNUU9N83CI7-503" value="" style="endArrow=none;html=1;rounded=0;" edge="1" parent="eMh7EWcEHwNUU9N83CI7-501">
          <mxGeometry width="50" height="50" relative="1" as="geometry">
            <mxPoint x="5" y="50" as="sourcePoint" />
            <mxPoint x="5" as="targetPoint" />
          </mxGeometry>
        </mxCell>
        <mxCell id="eMh7EWcEHwNUU9N83CI7-504" value="" style="endArrow=none;html=1;rounded=0;" edge="1" parent="eMh7EWcEHwNUU9N83CI7-501">
          <mxGeometry width="50" height="50" relative="1" as="geometry">
            <mxPoint x="10" y="5" as="sourcePoint" />
            <mxPoint y="5" as="targetPoint" />
          </mxGeometry>
        </mxCell>
        <mxCell id="eMh7EWcEHwNUU9N83CI7-505" value="" style="endArrow=none;html=1;rounded=0;exitX=1;exitY=0.5;exitDx=0;exitDy=0;" edge="1" parent="1" source="eMh7EWcEHwNUU9N83CI7-286">
          <mxGeometry width="50" height="50" relative="1" as="geometry">
            <mxPoint x="2518" y="-802" as="sourcePoint" />
            <mxPoint x="2824" y="-902" as="targetPoint" />
          </mxGeometry>
        </mxCell>
      </root>
    </mxGraphModel>
  </diagram>
</mxfile>
